<svg width="18" height="18" viewBox="0 0 18 18" fill="none" xmlns="http://www.w3.org/2000/svg">
<path fill-rule="evenodd" clip-rule="evenodd" d="M9.83332 1.50008C9.83332 1.27907 9.74553 1.06711 9.58925 0.910826C9.43297 0.754545 9.221 0.666748 8.99999 0.666748C8.77898 0.666748 8.56702 0.754545 8.41073 0.910826C8.25445 1.06711 8.16666 1.27907 8.16666 1.50008V2.33341C8.16666 2.55443 8.25445 2.76639 8.41073 2.92267C8.56702 3.07895 8.77898 3.16675 8.99999 3.16675C9.221 3.16675 9.43297 3.07895 9.58925 2.92267C9.74553 2.76639 9.83332 2.55443 9.83332 2.33341V1.50008ZM4.17249 2.99425C4.01532 2.84245 3.80482 2.75845 3.58632 2.76035C3.36782 2.76225 3.15881 2.84989 3.00431 3.0044C2.8498 3.15891 2.76216 3.36792 2.76026 3.58641C2.75836 3.80491 2.84236 4.01541 2.99416 4.17258L3.82749 5.00591C3.98466 5.15771 4.19516 5.24171 4.41366 5.23981C4.63216 5.23791 4.84117 5.15027 4.99567 4.99576C5.15018 4.84126 5.23782 4.63225 5.23972 4.41375C5.24162 4.19525 5.15762 3.98475 5.00582 3.82758L4.17249 2.99425ZM15.0058 4.17258C15.1576 4.01541 15.2416 3.80491 15.2397 3.58641C15.2378 3.36792 15.1502 3.15891 14.9957 3.0044C14.8412 2.84989 14.6322 2.76225 14.4137 2.76035C14.1952 2.75845 13.9847 2.84245 13.8275 2.99425L12.9942 3.82758C12.8424 3.98475 12.7584 4.19525 12.7603 4.41375C12.7622 4.63225 12.8498 4.84126 13.0043 4.99576C13.1588 5.15027 13.3678 5.23791 13.5863 5.23981C13.8048 5.24171 14.0153 5.15771 14.1725 5.00591L15.0058 4.17258ZM8.99999 4.00008C7.92585 4.00001 6.88024 4.34586 6.01799 4.98641C5.15574 5.62696 4.5227 6.52816 4.21259 7.55656C3.90248 8.58496 3.93179 9.68589 4.29619 10.6963C4.66059 11.7068 5.34071 12.573 6.23582 13.1667H11.7642C12.6593 12.573 13.3394 11.7068 13.7038 10.6963C14.0682 9.68589 14.0975 8.58496 13.7874 7.55656C13.4773 6.52816 12.8442 5.62696 11.982 4.98641C11.1197 4.34586 10.0741 4.00001 8.99999 4.00008ZM11.5 14.0001H6.49999V14.8334C6.49999 15.4965 6.76338 16.1323 7.23222 16.6012C7.70106 17.07 8.33695 17.3334 8.99999 17.3334C9.66303 17.3334 10.2989 17.07 10.7678 16.6012C11.2366 16.1323 11.5 15.4965 11.5 14.8334V14.0001ZM1.49999 8.16675C1.27898 8.16675 1.06701 8.25455 0.910734 8.41083C0.754454 8.56711 0.666656 8.77907 0.666656 9.00008C0.666656 9.2211 0.754454 9.43306 0.910734 9.58934C1.06701 9.74562 1.27898 9.83342 1.49999 9.83342H2.33332C2.55434 9.83342 2.7663 9.74562 2.92258 9.58934C3.07886 9.43306 3.16666 9.2211 3.16666 9.00008C3.16666 8.77907 3.07886 8.56711 2.92258 8.41083C2.7663 8.25455 2.55434 8.16675 2.33332 8.16675H1.49999ZM15.6667 8.16675C15.4456 8.16675 15.2337 8.25455 15.0774 8.41083C14.9211 8.56711 14.8333 8.77907 14.8333 9.00008C14.8333 9.2211 14.9211 9.43306 15.0774 9.58934C15.2337 9.74562 15.4456 9.83342 15.6667 9.83342H16.5C16.721 9.83342 16.933 9.74562 17.0892 9.58934C17.2455 9.43306 17.3333 9.2211 17.3333 9.00008C17.3333 8.77907 17.2455 8.56711 17.0892 8.41083C16.933 8.25455 16.721 8.16675 16.5 8.16675H15.6667Z" fill="#F35818"/>
</svg>
