<svg width="24" height="24" viewBox="0 0 24 24" fill="none" xmlns="http://www.w3.org/2000/svg">
<path d="M22.2026 4.1377H1.79742C0.804703 4.1377 0 4.9424 0 5.93512V18.0645C0 19.0572 0.804703 19.8619 1.79742 19.8619H22.2026C23.1952 19.8619 24 19.0572 24 18.0645V5.93512C24 4.9424 23.1953 4.1377 22.2026 4.1377Z" fill="#F5F5F5"/>
<path d="M14.2974 8.55597C12.396 7.28837 9.82785 7.80662 8.5611 9.70469C7.92571 10.6521 8.18399 11.9394 9.13462 12.5732C10.0845 13.207 11.3677 12.9496 12.0015 11.9989C12.6353 11.0482 13.9194 10.794 14.8693 11.4245C15.8207 12.0583 16.0766 13.3456 15.4419 14.293C16.7095 12.3918 16.1971 9.82361 14.2974 8.55597Z" fill="#FF4B55"/>
<path d="M8.56104 9.70508C7.92565 10.6525 8.18393 11.9398 9.13455 12.5736C10.0845 13.2074 11.3677 12.95 12.0015 11.9993C12.6353 11.0486 13.9193 10.7944 14.8692 11.4249C15.8207 12.0587 16.0766 13.346 15.4419 14.2934C14.176 16.198 11.6087 16.7098 9.70727 15.4422C7.80762 14.1747 7.29349 11.6065 8.56104 9.70508Z" fill="#41479B"/>
<path d="M16.4025 6.99318L17.1541 8.12296C17.2173 8.21789 17.1917 8.34604 17.097 8.40946L16.9064 8.5371C16.8113 8.60076 16.6826 8.57517 16.6191 8.47992L15.8665 7.35042C15.8032 7.2554 15.8289 7.12701 15.9239 7.06359L16.1154 6.93571C16.2105 6.8722 16.3391 6.89798 16.4025 6.99318Z" fill="#464655"/>
<path d="M17.5622 8.73508L18.3163 9.86415C18.3799 9.95949 18.3539 10.0885 18.2583 10.1517L18.0668 10.2782C17.9719 10.341 17.844 10.3152 17.7808 10.2205L17.0271 9.09264C16.9636 8.99767 16.9891 8.86918 17.0841 8.80567L17.2751 8.67798C17.3701 8.61447 17.4987 8.64001 17.5622 8.73508Z" fill="#464655"/>
<path d="M17.2073 6.45642L19.1212 9.3286C19.1845 9.42367 19.1588 9.5521 19.0637 9.61548L18.8715 9.74363C18.7764 9.80701 18.6479 9.78132 18.5845 9.68626L16.67 6.81427C16.6066 6.71916 16.6324 6.59063 16.7275 6.52725L16.9204 6.39886C17.0155 6.33572 17.1439 6.36136 17.2073 6.45642Z" fill="#464655"/>
<path d="M18.0097 5.91999L18.763 7.05198C18.8265 7.14732 18.8004 7.27604 18.7049 7.33918L18.5133 7.46574C18.4182 7.52855 18.2903 7.50273 18.2271 7.4079L17.4733 6.27741C17.4098 6.18235 17.4356 6.05386 17.5306 5.99044L17.7228 5.86238C17.8178 5.799 17.9464 5.82474 18.0097 5.91999Z" fill="#464655"/>
<path d="M19.1702 7.66553L19.9223 8.79517C19.9856 8.89014 19.96 9.01839 19.8651 9.08181L19.6741 9.2095C19.579 9.27306 19.4503 9.24742 19.3869 9.15217L18.6348 8.02253C18.5716 7.92756 18.5972 7.79931 18.692 7.73589L18.883 7.6082C18.9782 7.54459 19.1068 7.57018 19.1702 7.66553Z" fill="#464655"/>
<path d="M6.22137 13.7806L8.135 16.6497C8.19837 16.7447 8.17278 16.8732 8.07772 16.9366L7.88609 17.0645C7.79103 17.128 7.66254 17.1024 7.59908 17.0073L5.68545 14.1382C5.62203 14.0432 5.64767 13.9147 5.74273 13.8513L5.9344 13.7233C6.02942 13.6599 6.15795 13.6855 6.22137 13.7806Z" fill="#464655"/>
<path d="M5.41796 14.3172L6.16927 15.4442C6.2326 15.5391 6.20705 15.6673 6.11223 15.7308L5.92163 15.8584C5.82662 15.922 5.69799 15.8965 5.63448 15.8014L4.88228 14.6748C4.81881 14.5797 4.8444 14.4513 4.93946 14.3878L5.131 14.2599C5.22601 14.1965 5.35454 14.2221 5.41796 14.3172Z" fill="#464655"/>
<path d="M6.57887 16.0595L7.33102 17.1893C7.3943 17.2843 7.36866 17.4126 7.27374 17.4759L7.08259 17.6038C6.98748 17.6673 6.8589 17.6417 6.79543 17.5465L6.04281 16.417C5.97948 16.3219 6.00512 16.1935 6.10009 16.1302L6.29171 16.0022C6.38687 15.9386 6.51545 15.9643 6.57887 16.0595Z" fill="#464655"/>
<path d="M4.61448 14.8534L6.52689 17.7226C6.59021 17.8175 6.56457 17.9459 6.46975 18.0094L6.27864 18.1371C6.18357 18.2007 6.055 18.1751 5.99153 18.08L4.078 15.2111C4.01458 15.1161 4.04031 14.9876 4.13537 14.9242L4.32765 14.796C4.42262 14.7326 4.55111 14.7583 4.61448 14.8534Z" fill="#464655"/>
<path d="M5.6856 9.86451L7.59895 6.99309C7.66237 6.89793 7.7909 6.87224 7.88601 6.93571L8.07759 7.06363C8.1726 7.12705 8.1982 7.25549 8.13487 7.35051L6.22078 10.2203C6.15749 10.3152 6.02948 10.3409 5.93446 10.278L5.74364 10.1517C5.6481 10.0885 5.62214 9.95976 5.6856 9.86451Z" fill="#464655"/>
<path d="M4.88192 9.32843L6.7956 6.45644C6.85902 6.36128 6.98764 6.3356 7.08275 6.39916L7.27386 6.52694C7.36874 6.59036 7.39433 6.71866 7.33105 6.81363L5.41789 9.68575C5.35447 9.78091 5.22593 9.80664 5.13082 9.74313L4.9392 9.61521C4.84423 9.55183 4.81859 9.42344 4.88192 9.32843Z" fill="#464655"/>
<path d="M4.07763 8.79475L5.99149 5.9199C6.05491 5.82469 6.18358 5.79896 6.27869 5.86252L6.4698 5.9903C6.56463 6.05373 6.59027 6.18188 6.52708 6.2769L4.61439 9.15217C4.55106 9.24733 4.42249 9.27315 4.32738 9.20973L4.13519 9.08158C4.04008 9.0182 4.01439 8.88981 4.07763 8.79475Z" fill="#464655"/>
<path d="M15.8669 16.6493L16.6191 15.5227C16.6826 15.4276 16.8113 15.402 16.9063 15.4656L17.0969 15.5932C17.1917 15.6567 17.2172 15.785 17.1539 15.8799L16.4026 17.0068C16.3391 17.1019 16.2106 17.1276 16.1155 17.0641L15.924 16.9362C15.829 16.8728 15.8034 16.7444 15.8669 16.6493Z" fill="#464655"/>
<path d="M17.0271 14.913L17.7805 13.7808C17.8438 13.6856 17.9724 13.6598 18.0675 13.7232L18.2595 13.8512C18.3546 13.9146 18.3803 14.0432 18.3169 14.1383L17.5618 15.2687C17.4985 15.3635 17.3705 15.3892 17.2755 15.3262L17.0851 15.2C16.9897 15.1368 16.9637 15.0082 17.0271 14.913Z" fill="#464655"/>
<path d="M16.67 17.1891L17.4227 16.0595C17.486 15.9644 17.6145 15.9386 17.7096 16.0021L17.902 16.1304C17.997 16.1937 18.0227 16.3221 17.9594 16.4172L17.2072 17.5469C17.1439 17.642 17.0155 17.6678 16.9204 17.6044L16.7275 17.4761C16.6324 17.4127 16.6066 17.2842 16.67 17.1891Z" fill="#464655"/>
<path d="M17.8313 15.4435L18.5844 14.3166C18.6479 14.2216 18.7762 14.196 18.8712 14.2594L19.0635 14.3875C19.1587 14.451 19.1843 14.5795 19.1207 14.6746L18.3676 15.8016C18.3042 15.8966 18.1758 15.9222 18.0809 15.8588L17.8885 15.7307C17.7934 15.6672 17.7677 15.5386 17.8313 15.4435Z" fill="#464655"/>
<path d="M17.4736 17.7225L18.2272 16.5949C18.2904 16.5002 18.4183 16.4745 18.5132 16.5372L18.7048 16.6638C18.8004 16.727 18.8264 16.8558 18.7629 16.9512L18.0099 18.0803C17.9465 18.1754 17.818 18.201 17.723 18.1377L17.5309 18.0096C17.4357 17.9461 17.4101 17.8176 17.4736 17.7225Z" fill="#464655"/>
<path d="M18.6353 15.9829L19.3869 14.854C19.4504 14.7588 19.579 14.733 19.6741 14.7966L19.865 14.9242C19.9599 14.9877 19.9855 15.1161 19.9221 15.2111L19.1698 16.3385C19.1066 16.4334 18.9784 16.4591 18.8834 16.3961L18.6931 16.2701C18.5978 16.2068 18.5719 16.0781 18.6353 15.9829Z" fill="#464655"/>
</svg>
