<svg width="10" height="5" viewBox="0 0 10 5" fill="none" xmlns="http://www.w3.org/2000/svg">
<path d="M9.0172 0.767519L5.2672 4.51752C5.1961 4.58794 5.10008 4.62744 5.00001 4.62744C4.89994 4.62744 4.80392 4.58794 4.73283 4.51752L0.982825 0.767519C0.931953 0.7133 0.897471 0.645784 0.883369 0.572785C0.869266 0.499786 0.87612 0.424285 0.903137 0.355019C0.931826 0.286768 0.980074 0.228537 1.0418 0.187663C1.10353 0.146788 1.17598 0.1251 1.25001 0.125332H8.75001C8.82405 0.1251 8.89649 0.146788 8.95822 0.187663C9.01995 0.228537 9.0682 0.286768 9.09689 0.355019C9.1239 0.424285 9.13076 0.499786 9.11666 0.572785C9.10255 0.645784 9.06807 0.7133 9.0172 0.767519Z" fill="white"/>
</svg>
