<svg width="24" height="24" viewBox="0 0 24 24" fill="none" xmlns="http://www.w3.org/2000/svg">
<path d="M22.2026 4.1377H1.79742C0.804703 4.1377 0 4.9424 0 5.93512V18.0644C0 19.0571 0.804703 19.8619 1.79742 19.8619H22.2026C23.1952 19.8619 24 19.0572 24 18.0644V5.93512C24 4.9424 23.1953 4.1377 22.2026 4.1377Z" fill="#F5F5F5"/>
<path d="M0.098877 5.34726H23.9011C23.6575 4.64334 22.9893 4.1377 22.2026 4.1377H1.79744C1.01069 4.1377 0.342486 4.64334 0.098877 5.34726Z" fill="#FF4B55"/>
<path d="M24 8.97607H0V10.1856H24V8.97607Z" fill="#FF4B55"/>
<path d="M24 6.55664H0V7.76616H24V6.55664Z" fill="#FF4B55"/>
<path d="M0 12.1908C0 12.4193 0.185297 12.6046 0.413813 12.6046H24V11.395H0V12.1908Z" fill="#FF4B55"/>
<path d="M24 16.2334H0V17.443H24V16.2334Z" fill="#FF4B55"/>
<path d="M23.9011 18.6523H0.098877C0.342486 19.3563 1.01074 19.8619 1.79744 19.8619H22.2026C22.9893 19.8619 23.6575 19.3563 23.9011 18.6523Z" fill="#FF4B55"/>
<path d="M24 13.8145H0V15.024H24V13.8145Z" fill="#FF4B55"/>
<path d="M0.413813 12.6046H10.7587C10.9872 12.6046 11.1725 12.4193 11.1725 12.1908V4.55151C11.1725 4.32295 10.9872 4.1377 10.7587 4.1377H1.79742C0.804703 4.13774 0 4.94245 0 5.93517V12.1908C0 12.4193 0.185297 12.6046 0.413813 12.6046Z" fill="#41479B"/>
<path d="M1.1621 5.08771L1.2537 5.3624L1.54325 5.3646C1.58075 5.36493 1.59626 5.41274 1.56612 5.43501L1.3332 5.60699L1.42057 5.88304C1.43192 5.91876 1.39118 5.94838 1.36067 5.92654L1.12512 5.75821L0.889573 5.92659C0.859058 5.94843 0.818417 5.91881 0.829667 5.88309L0.917042 5.60704L0.68412 5.43506C0.65398 5.41274 0.669495 5.36493 0.706995 5.36465L0.996542 5.36245L1.08814 5.08776C1.09995 5.05213 1.1502 5.05213 1.1621 5.08771Z" fill="#F5F5F5"/>
<path d="M1.1621 6.52469L1.2537 6.79938L1.54325 6.80158C1.58075 6.80191 1.59626 6.84968 1.56612 6.87199L1.3332 7.04402L1.42057 7.32007C1.43192 7.35579 1.39118 7.38542 1.36067 7.36357L1.12512 7.19524L0.889573 7.36362C0.859058 7.38542 0.818417 7.35584 0.829667 7.32012L0.917042 7.04407L0.68412 6.87204C0.65398 6.84972 0.669495 6.80196 0.706995 6.80163L0.996542 6.79943L1.08814 6.52474C1.09995 6.48916 1.1502 6.48916 1.1621 6.52469Z" fill="#F5F5F5"/>
<path d="M1.1621 7.96174L1.2537 8.23642L1.54325 8.23863C1.58075 8.23896 1.59626 8.28672 1.56612 8.30903L1.3332 8.48107L1.42057 8.75711C1.43192 8.79283 1.39118 8.82246 1.36067 8.80061L1.12512 8.63228L0.889573 8.80066C0.859058 8.82246 0.818417 8.79293 0.829667 8.75716L0.917042 8.48111L0.68412 8.30908C0.65398 8.28677 0.669495 8.239 0.706995 8.23867L0.996542 8.23647L1.08814 7.96178C1.09995 7.92616 1.1502 7.92616 1.1621 7.96174Z" fill="#F5F5F5"/>
<path d="M1.1621 9.39826L1.2537 9.67294L1.54325 9.67515C1.58075 9.67548 1.59626 9.72329 1.56612 9.74555L1.3332 9.91758L1.42057 10.1936C1.43192 10.2293 1.39118 10.259 1.36067 10.2371L1.12512 10.0688L0.889573 10.2372C0.859058 10.259 0.818417 10.2294 0.829667 10.1937L0.917042 9.91763L0.68412 9.7456C0.65398 9.72338 0.669495 9.67552 0.706995 9.67519L0.996542 9.67299L1.08814 9.39831C1.09995 9.36268 1.1502 9.36268 1.1621 9.39826Z" fill="#F5F5F5"/>
<path d="M1.1621 10.8352L1.2537 11.1099L1.54325 11.1121C1.58075 11.1125 1.59626 11.1602 1.56612 11.1825L1.3332 11.3546L1.42057 11.6306C1.43192 11.6663 1.39118 11.696 1.36067 11.6741L1.12512 11.5058L0.889573 11.6742C0.859058 11.696 0.818417 11.6664 0.829667 11.6307L0.917042 11.3546L0.68412 11.1826C0.65398 11.1603 0.669495 11.1125 0.706995 11.1122L0.996542 11.11L1.08814 10.8353C1.09995 10.7997 1.1502 10.7997 1.1621 10.8352Z" fill="#F5F5F5"/>
<path d="M2.27734 5.79227L2.36893 6.06696L2.65848 6.06916C2.69598 6.06949 2.71149 6.1173 2.68135 6.13957L2.44843 6.3116L2.53581 6.58765C2.54715 6.62336 2.50642 6.65299 2.4759 6.63115L2.24035 6.46277L2.00481 6.63115C1.97429 6.65294 1.93365 6.62336 1.9449 6.58765L2.03228 6.3116L1.79935 6.13957C1.76921 6.11726 1.78473 6.06949 1.82223 6.06916L2.11178 6.06696L2.20337 5.79227C2.21518 5.75674 2.26548 5.75674 2.27734 5.79227Z" fill="#F5F5F5"/>
<path d="M2.27734 7.22932L2.36893 7.50401L2.65848 7.50621C2.69598 7.50654 2.71149 7.55435 2.68135 7.57662L2.44843 7.74865L2.53581 8.0247C2.54715 8.06041 2.50642 8.09004 2.4759 8.0682L2.24035 7.89982L2.00481 8.0682C1.97429 8.08999 1.93365 8.06046 1.9449 8.0247L2.03228 7.74865L1.79935 7.57662C1.76921 7.5544 1.78473 7.50654 1.82223 7.50621L2.11178 7.50401L2.20337 7.22932C2.21518 7.19374 2.26548 7.19374 2.27734 7.22932Z" fill="#F5F5F5"/>
<path d="M2.27734 8.66584L2.36893 8.94053L2.65848 8.94274C2.69598 8.94306 2.71149 8.99083 2.68135 9.01314L2.44843 9.18517L2.53581 9.46122C2.54715 9.49694 2.50642 9.52657 2.4759 9.50472L2.24035 9.33635L2.00481 9.50472C1.97429 9.52652 1.93365 9.49694 1.9449 9.46122L2.03228 9.18517L1.79935 9.01314C1.76921 8.99083 1.78473 8.94306 1.82223 8.94274L2.11178 8.94053L2.20337 8.66584C2.21518 8.63027 2.26548 8.63027 2.27734 8.66584Z" fill="#F5F5F5"/>
<path d="M2.27734 10.1028L2.36893 10.3775L2.65848 10.3797C2.69598 10.38 2.71149 10.4278 2.68135 10.4501L2.44843 10.6221L2.53581 10.8982C2.54715 10.9339 2.50642 10.9635 2.4759 10.9417L2.24035 10.7733L2.00481 10.9417C1.97429 10.9635 1.93365 10.9339 1.9449 10.8982L2.03228 10.6221L1.79935 10.4501C1.76921 10.4278 1.78473 10.38 1.82223 10.3797L2.11178 10.3775L2.20337 10.1028C2.21518 10.0673 2.26548 10.0673 2.27734 10.1028Z" fill="#F5F5F5"/>
<path d="M3.39282 5.08772L3.48441 5.36241L3.77396 5.36461C3.81146 5.36494 3.82697 5.41275 3.79683 5.43502L3.56391 5.607L3.65128 5.88305C3.66263 5.91877 3.62189 5.94839 3.59138 5.92655L3.35583 5.75817L3.12029 5.92655C3.08977 5.94839 3.04913 5.91877 3.06038 5.88305L3.14775 5.607L2.91483 5.43502C2.88469 5.4127 2.90021 5.36489 2.93771 5.36461L3.22725 5.36241L3.31885 5.08772C3.33066 5.05214 3.38096 5.05214 3.39282 5.08772Z" fill="#F5F5F5"/>
<path d="M3.39282 6.5247L3.48441 6.79938L3.77396 6.80159C3.81146 6.80191 3.82697 6.84968 3.79683 6.87199L3.56391 7.04402L3.65128 7.32007C3.66263 7.35579 3.62189 7.38541 3.59138 7.36357L3.35583 7.19519L3.12029 7.36357C3.08977 7.38537 3.04913 7.35579 3.06038 7.32007L3.14775 7.04402L2.91483 6.87199C2.88469 6.84968 2.90021 6.80191 2.93771 6.80159L3.22725 6.79938L3.31885 6.5247C3.33066 6.48916 3.38096 6.48916 3.39282 6.5247Z" fill="#F5F5F5"/>
<path d="M3.39282 7.96174L3.48441 8.23643L3.77396 8.23863C3.81146 8.23896 3.82697 8.28673 3.79683 8.30904L3.56391 8.48107L3.65128 8.75712C3.66263 8.79284 3.62189 8.82246 3.59138 8.80062L3.35583 8.63224L3.12029 8.80062C3.08977 8.82241 3.04913 8.79288 3.06038 8.75712L3.14775 8.48107L2.91483 8.30904C2.88469 8.28673 2.90021 8.23896 2.93771 8.23863L3.22725 8.23643L3.31885 7.96174C3.33066 7.92616 3.38096 7.92616 3.39282 7.96174Z" fill="#F5F5F5"/>
<path d="M3.39282 9.39827L3.48441 9.67295L3.77396 9.67516C3.81146 9.67549 3.82697 9.7233 3.79683 9.74556L3.56391 9.9176L3.65128 10.1936C3.66263 10.2294 3.62189 10.259 3.59138 10.2371L3.35583 10.0688L3.12029 10.2371C3.08977 10.2589 3.04913 10.2294 3.06038 10.1936L3.14775 9.9176L2.91483 9.74556C2.88469 9.72335 2.90021 9.67549 2.93771 9.67516L3.22725 9.67295L3.31885 9.39827C3.33066 9.36269 3.38096 9.36269 3.39282 9.39827Z" fill="#F5F5F5"/>
<path d="M3.39282 10.8352L3.48441 11.1099L3.77396 11.1121C3.81146 11.1125 3.82697 11.1602 3.79683 11.1825L3.56391 11.3546L3.65128 11.6306C3.66263 11.6663 3.62189 11.696 3.59138 11.6741L3.35583 11.5057L3.12029 11.6741C3.08977 11.6959 3.04913 11.6663 3.06038 11.6306L3.14775 11.3546L2.91483 11.1825C2.88469 11.1602 2.90021 11.1125 2.93771 11.1121L3.22725 11.1099L3.31885 10.8352C3.33066 10.7997 3.38096 10.7997 3.39282 10.8352Z" fill="#F5F5F5"/>
<path d="M4.50805 5.79227L4.59965 6.06696L4.88919 6.06916C4.92669 6.06949 4.94221 6.1173 4.91207 6.13957L4.67915 6.3116L4.76652 6.58765C4.77786 6.62336 4.73713 6.65299 4.70661 6.63115L4.47107 6.46277L4.23552 6.63115C4.20501 6.65294 4.16436 6.62336 4.17561 6.58765L4.26299 6.3116L4.03007 6.13957C3.99993 6.11726 4.01544 6.06949 4.05294 6.06916L4.34249 6.06696L4.43408 5.79227C4.44585 5.75674 4.49619 5.75674 4.50805 5.79227Z" fill="#F5F5F5"/>
<path d="M4.50805 7.22932L4.59965 7.50401L4.88919 7.50621C4.92669 7.50654 4.94221 7.55435 4.91207 7.57662L4.67915 7.74865L4.76652 8.0247C4.77786 8.06041 4.73713 8.09004 4.70661 8.0682L4.47107 7.89982L4.23552 8.0682C4.20501 8.08999 4.16436 8.06046 4.17561 8.0247L4.26299 7.74865L4.03007 7.57662C3.99993 7.5544 4.01544 7.50654 4.05294 7.50621L4.34249 7.50401L4.43408 7.22932C4.44585 7.19374 4.49619 7.19374 4.50805 7.22932Z" fill="#F5F5F5"/>
<path d="M4.50805 8.66584L4.59965 8.94053L4.88919 8.94274C4.92669 8.94306 4.94221 8.99083 4.91207 9.01314L4.67915 9.18517L4.76652 9.46122C4.77786 9.49694 4.73713 9.52657 4.70661 9.50472L4.47107 9.33635L4.23552 9.50472C4.20501 9.52652 4.16436 9.49694 4.17561 9.46122L4.26299 9.18517L4.03007 9.01314C3.99993 8.99083 4.01544 8.94306 4.05294 8.94274L4.34249 8.94053L4.43408 8.66584C4.44585 8.63027 4.49619 8.63027 4.50805 8.66584Z" fill="#F5F5F5"/>
<path d="M4.50805 10.1028L4.59965 10.3775L4.88919 10.3797C4.92669 10.38 4.94221 10.4278 4.91207 10.4501L4.67915 10.6221L4.76652 10.8982C4.77786 10.9339 4.73713 10.9635 4.70661 10.9417L4.47107 10.7733L4.23552 10.9417C4.20501 10.9635 4.16436 10.9339 4.17561 10.8982L4.26299 10.6221L4.03007 10.4501C3.99993 10.4278 4.01544 10.38 4.05294 10.3797L4.34249 10.3775L4.43408 10.1028C4.44585 10.0673 4.49619 10.0673 4.50805 10.1028Z" fill="#F5F5F5"/>
<path d="M5.62333 5.08771L5.71492 5.3624L6.00447 5.3646C6.04197 5.36493 6.05748 5.41274 6.02734 5.43501L5.79442 5.60699L5.8818 5.88304C5.89314 5.91876 5.85241 5.94838 5.82189 5.92654L5.5863 5.75821L5.35075 5.92659C5.32024 5.94843 5.2796 5.91881 5.29085 5.88309L5.37822 5.60704L5.1453 5.43506C5.11516 5.41274 5.13068 5.36493 5.16818 5.36465L5.45772 5.36245L5.54932 5.08776C5.56117 5.05213 5.61147 5.05213 5.62333 5.08771Z" fill="#F5F5F5"/>
<path d="M5.62333 6.5247L5.71492 6.79938L6.00447 6.80159C6.04197 6.80191 6.05748 6.84968 6.02734 6.87199L5.79442 7.04402L5.8818 7.32007C5.89314 7.35579 5.85241 7.38541 5.82189 7.36357L5.5863 7.19519L5.35075 7.36357C5.32024 7.38537 5.2796 7.35579 5.29085 7.32007L5.37822 7.04402L5.1453 6.87199C5.11516 6.84968 5.13068 6.80191 5.16818 6.80159L5.45772 6.79938L5.54932 6.5247C5.56117 6.48916 5.61147 6.48916 5.62333 6.5247Z" fill="#F5F5F5"/>
<path d="M5.62333 7.96175L5.71492 8.23644L6.00447 8.23864C6.04197 8.23897 6.05748 8.28673 6.02734 8.30905L5.79442 8.48108L5.8818 8.75712C5.89314 8.79284 5.85241 8.82247 5.82189 8.80062L5.5863 8.6322L5.35075 8.80058C5.32024 8.82237 5.2796 8.7928 5.29085 8.75708L5.37822 8.48103L5.1453 8.309C5.11516 8.28669 5.13068 8.23892 5.16818 8.23859L5.45772 8.23639L5.54932 7.9617C5.56117 7.92617 5.61147 7.92617 5.62333 7.96175Z" fill="#F5F5F5"/>
<path d="M5.62333 9.39827L5.71492 9.67295L6.00447 9.67516C6.04197 9.67549 6.05748 9.7233 6.02734 9.74556L5.79442 9.9176L5.8818 10.1936C5.89314 10.2294 5.85241 10.259 5.82189 10.2371L5.5863 10.0688L5.35075 10.2371C5.32024 10.2589 5.2796 10.2294 5.29085 10.1936L5.37822 9.9176L5.1453 9.74556C5.11516 9.72335 5.13068 9.67549 5.16818 9.67516L5.45772 9.67295L5.54932 9.39827C5.56117 9.36269 5.61147 9.36269 5.62333 9.39827Z" fill="#F5F5F5"/>
<path d="M5.62333 10.8352L5.71492 11.1099L6.00447 11.1121C6.04197 11.1125 6.05748 11.1602 6.02734 11.1825L5.79442 11.3546L5.8818 11.6306C5.89314 11.6663 5.85241 11.696 5.82189 11.6741L5.5863 11.5057L5.35075 11.6741C5.32024 11.6959 5.2796 11.6663 5.29085 11.6306L5.37822 11.3546L5.1453 11.1825C5.11516 11.1602 5.13068 11.1125 5.16818 11.1121L5.45772 11.1099L5.54932 10.8352C5.56117 10.7997 5.61147 10.7997 5.62333 10.8352Z" fill="#F5F5F5"/>
<path d="M6.73852 5.79227L6.83011 6.06696L7.11965 6.06916C7.15715 6.06949 7.17267 6.1173 7.14253 6.13957L6.90961 6.3116L6.99698 6.58765C7.00833 6.62336 6.96759 6.65299 6.93708 6.63115L6.70153 6.46277L6.46599 6.63115C6.43547 6.65294 6.39483 6.62336 6.40608 6.58765L6.49346 6.3116L6.26054 6.13957C6.2304 6.11726 6.24591 6.06949 6.28341 6.06916L6.57296 6.06696L6.66455 5.79227C6.67641 5.75674 6.72666 5.75674 6.73852 5.79227Z" fill="#F5F5F5"/>
<path d="M6.73852 7.22932L6.83011 7.50401L7.11965 7.50621C7.15715 7.50654 7.17267 7.55435 7.14253 7.57662L6.90961 7.74865L6.99698 8.0247C7.00833 8.06041 6.96759 8.09004 6.93708 8.0682L6.70153 7.89982L6.46599 8.0682C6.43547 8.08999 6.39483 8.06046 6.40608 8.0247L6.49346 7.74865L6.26054 7.57662C6.2304 7.5544 6.24591 7.50654 6.28341 7.50621L6.57296 7.50401L6.66455 7.22932C6.67641 7.19374 6.72666 7.19374 6.73852 7.22932Z" fill="#F5F5F5"/>
<path d="M6.73852 8.66584L6.83011 8.94053L7.11965 8.94274C7.15715 8.94306 7.17267 8.99083 7.14253 9.01314L6.90961 9.18517L6.99698 9.46122C7.00833 9.49694 6.96759 9.52657 6.93708 9.50472L6.70153 9.33635L6.46599 9.50472C6.43547 9.52652 6.39483 9.49694 6.40608 9.46122L6.49346 9.18517L6.26054 9.01314C6.2304 8.99083 6.24591 8.94306 6.28341 8.94274L6.57296 8.94053L6.66455 8.66584C6.67641 8.63027 6.72666 8.63027 6.73852 8.66584Z" fill="#F5F5F5"/>
<path d="M6.73852 10.1028L6.83011 10.3775L7.11965 10.3797C7.15715 10.38 7.17267 10.4278 7.14253 10.4501L6.90961 10.6221L6.99698 10.8982C7.00833 10.9339 6.96759 10.9635 6.93708 10.9417L6.70153 10.7733L6.46599 10.9417C6.43547 10.9635 6.39483 10.9339 6.40608 10.8982L6.49346 10.6221L6.26054 10.4501C6.2304 10.4278 6.24591 10.38 6.28341 10.3797L6.57296 10.3775L6.66455 10.1028C6.67641 10.0673 6.72666 10.0673 6.73852 10.1028Z" fill="#F5F5F5"/>
<path d="M7.85399 5.08772L7.94559 5.36241L8.23513 5.36461C8.27263 5.36494 8.28815 5.41275 8.25801 5.43502L8.02509 5.607L8.11246 5.88305C8.12381 5.91877 8.08307 5.94839 8.05256 5.92655L7.81701 5.75817L7.58147 5.92655C7.55095 5.94839 7.51031 5.91877 7.52156 5.88305L7.60893 5.607L7.37601 5.43502C7.34587 5.4127 7.36139 5.36489 7.39889 5.36461L7.68843 5.36241L7.78003 5.08772C7.79179 5.05214 7.84214 5.05214 7.85399 5.08772Z" fill="#F5F5F5"/>
<path d="M7.85399 6.5247L7.94559 6.79938L8.23513 6.80159C8.27263 6.80191 8.28815 6.84968 8.25801 6.87199L8.02509 7.04402L8.11246 7.32007C8.12381 7.35579 8.08307 7.38541 8.05256 7.36357L7.81701 7.19519L7.58147 7.36357C7.55095 7.38537 7.51031 7.35579 7.52156 7.32007L7.60893 7.04402L7.37601 6.87199C7.34587 6.84968 7.36139 6.80191 7.39889 6.80159L7.68843 6.79938L7.78003 6.5247C7.79179 6.48916 7.84214 6.48916 7.85399 6.5247Z" fill="#F5F5F5"/>
<path d="M7.85399 7.96174L7.94559 8.23643L8.23513 8.23863C8.27263 8.23896 8.28815 8.28673 8.25801 8.30904L8.02509 8.48107L8.11246 8.75712C8.12381 8.79284 8.08307 8.82246 8.05256 8.80062L7.81701 8.63224L7.58147 8.80062C7.55095 8.82241 7.51031 8.79288 7.52156 8.75712L7.60893 8.48107L7.37601 8.30904C7.34587 8.28673 7.36139 8.23896 7.39889 8.23863L7.68843 8.23643L7.78003 7.96174C7.79179 7.92616 7.84214 7.92616 7.85399 7.96174Z" fill="#F5F5F5"/>
<path d="M7.85399 9.39827L7.94559 9.67295L8.23513 9.67516C8.27263 9.67549 8.28815 9.7233 8.25801 9.74556L8.02509 9.9176L8.11246 10.1936C8.12381 10.2294 8.08307 10.259 8.05256 10.2371L7.81701 10.0688L7.58147 10.2371C7.55095 10.2589 7.51031 10.2294 7.52156 10.1936L7.60893 9.9176L7.37601 9.74556C7.34587 9.72335 7.36139 9.67549 7.39889 9.67516L7.68843 9.67295L7.78003 9.39827C7.79179 9.36269 7.84214 9.36269 7.85399 9.39827Z" fill="#F5F5F5"/>
<path d="M7.85399 10.8352L7.94559 11.1099L8.23513 11.1121C8.27263 11.1125 8.28815 11.1602 8.25801 11.1825L8.02509 11.3546L8.11246 11.6306C8.12381 11.6663 8.08307 11.696 8.05256 11.6741L7.81701 11.5057L7.58147 11.6741C7.55095 11.6959 7.51031 11.6663 7.52156 11.6306L7.60893 11.3546L7.37601 11.1825C7.34587 11.1602 7.36139 11.1125 7.39889 11.1121L7.68843 11.1099L7.78003 10.8352C7.79179 10.7997 7.84214 10.7997 7.85399 10.8352Z" fill="#F5F5F5"/>
<path d="M8.96923 5.79227L9.06083 6.06696L9.35037 6.06916C9.38787 6.06949 9.40339 6.1173 9.37325 6.13957L9.14033 6.3116L9.2277 6.58765C9.23904 6.62336 9.19831 6.65299 9.16779 6.63115L8.93225 6.46277L8.6967 6.63115C8.66619 6.65294 8.62555 6.62336 8.6368 6.58765L8.72417 6.3116L8.49125 6.13957C8.46111 6.11726 8.47662 6.06949 8.51412 6.06916L8.80367 6.06696L8.89526 5.79227C8.90708 5.75674 8.95737 5.75674 8.96923 5.79227Z" fill="#F5F5F5"/>
<path d="M8.96923 7.22932L9.06083 7.50401L9.35037 7.50621C9.38787 7.50654 9.40339 7.55435 9.37325 7.57662L9.14033 7.74865L9.2277 8.0247C9.23904 8.06041 9.19831 8.09004 9.16779 8.0682L8.93225 7.89982L8.6967 8.0682C8.66619 8.08999 8.62555 8.06046 8.6368 8.0247L8.72417 7.74865L8.49125 7.57662C8.46111 7.5544 8.47662 7.50654 8.51412 7.50621L8.80367 7.50401L8.89526 7.22932C8.90708 7.19374 8.95737 7.19374 8.96923 7.22932Z" fill="#F5F5F5"/>
<path d="M8.96923 8.66584L9.06083 8.94053L9.35037 8.94274C9.38787 8.94306 9.40339 8.99083 9.37325 9.01314L9.14033 9.18517L9.2277 9.46122C9.23904 9.49694 9.19831 9.52657 9.16779 9.50472L8.93225 9.33635L8.6967 9.50472C8.66619 9.52652 8.62555 9.49694 8.6368 9.46122L8.72417 9.18517L8.49125 9.01314C8.46111 8.99083 8.47662 8.94306 8.51412 8.94274L8.80367 8.94053L8.89526 8.66584C8.90708 8.63027 8.95737 8.63027 8.96923 8.66584Z" fill="#F5F5F5"/>
<path d="M8.96923 10.1028L9.06083 10.3775L9.35037 10.3797C9.38787 10.38 9.40339 10.4278 9.37325 10.4501L9.14033 10.6221L9.2277 10.8982C9.23904 10.9339 9.19831 10.9635 9.16779 10.9417L8.93225 10.7733L8.6967 10.9417C8.66619 10.9635 8.62555 10.9339 8.6368 10.8982L8.72417 10.6221L8.49125 10.4501C8.46111 10.4278 8.47662 10.38 8.51412 10.3797L8.80367 10.3775L8.89526 10.1028C8.90708 10.0673 8.95737 10.0673 8.96923 10.1028Z" fill="#F5F5F5"/>
<path d="M10.0847 5.08772L10.1763 5.36241L10.4659 5.36461C10.5034 5.36494 10.5189 5.41275 10.4887 5.43502L10.2558 5.607L10.3432 5.88305C10.3545 5.91877 10.3138 5.94839 10.2833 5.92655L10.0477 5.75817L9.81218 5.92655C9.78167 5.94839 9.74103 5.91877 9.75228 5.88305L9.83965 5.607L9.60673 5.43502C9.57659 5.4127 9.5921 5.36489 9.6296 5.36461L9.91915 5.36241L10.0107 5.08772C10.0226 5.05214 10.0728 5.05214 10.0847 5.08772Z" fill="#F5F5F5"/>
<path d="M10.0847 6.5247L10.1763 6.79938L10.4659 6.80159C10.5034 6.80191 10.5189 6.84968 10.4887 6.87199L10.2558 7.04402L10.3432 7.32007C10.3545 7.35579 10.3138 7.38541 10.2833 7.36357L10.0477 7.19519L9.81218 7.36357C9.78167 7.38537 9.74103 7.35579 9.75228 7.32007L9.83965 7.04402L9.60673 6.87199C9.57659 6.84968 9.5921 6.80191 9.6296 6.80159L9.91915 6.79938L10.0107 6.5247C10.0226 6.48916 10.0728 6.48916 10.0847 6.5247Z" fill="#F5F5F5"/>
<path d="M10.0847 7.96174L10.1763 8.23643L10.4659 8.23863C10.5034 8.23896 10.5189 8.28673 10.4887 8.30904L10.2558 8.48107L10.3432 8.75712C10.3545 8.79284 10.3138 8.82246 10.2833 8.80062L10.0477 8.63224L9.81218 8.80062C9.78167 8.82241 9.74103 8.79288 9.75228 8.75712L9.83965 8.48107L9.60673 8.30904C9.57659 8.28673 9.5921 8.23896 9.6296 8.23863L9.91915 8.23643L10.0107 7.96174C10.0226 7.92616 10.0728 7.92616 10.0847 7.96174Z" fill="#F5F5F5"/>
<path d="M10.0847 9.39827L10.1763 9.67295L10.4659 9.67516C10.5034 9.67549 10.5189 9.7233 10.4887 9.74556L10.2558 9.9176L10.3432 10.1936C10.3545 10.2294 10.3138 10.259 10.2833 10.2371L10.0477 10.0688L9.81218 10.2371C9.78167 10.2589 9.74103 10.2294 9.75228 10.1936L9.83965 9.9176L9.60673 9.74556C9.57659 9.72335 9.5921 9.67549 9.6296 9.67516L9.91915 9.67295L10.0107 9.39827C10.0226 9.36269 10.0728 9.36269 10.0847 9.39827Z" fill="#F5F5F5"/>
<path d="M10.0847 10.8352L10.1763 11.1099L10.4659 11.1121C10.5034 11.1125 10.5189 11.1602 10.4887 11.1825L10.2558 11.3546L10.3432 11.6306C10.3545 11.6663 10.3138 11.696 10.2833 11.6741L10.0477 11.5057L9.81218 11.6741C9.78167 11.6959 9.74103 11.6663 9.75228 11.6306L9.83965 11.3546L9.60673 11.1825C9.57659 11.1602 9.5921 11.1125 9.6296 11.1121L9.91915 11.1099L10.0107 10.8352C10.0226 10.7997 10.0728 10.7997 10.0847 10.8352Z" fill="#F5F5F5"/>
</svg>
