<svg width="24" height="24" viewBox="0 0 24 24" fill="none" xmlns="http://www.w3.org/2000/svg">
<path d="M22.2026 4.1377H1.79742C0.804703 4.1377 0 4.9424 0 5.93512V18.0645C0 19.0572 0.804703 19.8619 1.79742 19.8619H22.2026C23.1952 19.8619 24 19.0572 24 18.0645V5.93512C24 4.9424 23.1953 4.1377 22.2026 4.1377Z" fill="#0052B4"/>
<path d="M12.1683 5.93844L12.3343 6.43593L12.8586 6.44C12.9266 6.44052 12.9547 6.52714 12.9001 6.5675L12.4782 6.87904L12.6364 7.379C12.6568 7.44369 12.5832 7.49732 12.5279 7.4578L12.1013 7.15283L11.6747 7.4578C11.6195 7.49727 11.5457 7.44374 11.5662 7.379L11.7244 6.87904L11.3025 6.5675C11.2479 6.52714 11.276 6.44052 11.3439 6.44L11.8683 6.43593L12.0343 5.93844C12.0557 5.87404 12.1469 5.87404 12.1683 5.93844Z" fill="#FFDA44"/>
<path d="M12.1683 16.6196L12.3343 17.1171L12.8586 17.1212C12.9266 17.1217 12.9547 17.2083 12.9001 17.2487L12.4782 17.5602L12.6364 18.0602C12.6568 18.1249 12.5832 18.1785 12.5279 18.139L12.1013 17.834L11.6747 18.139C11.6195 18.1785 11.5457 18.1249 11.5662 18.0602L11.7244 17.5602L11.3025 17.2487C11.2479 17.2083 11.276 17.1217 11.3439 17.1212L11.8683 17.1171L12.0343 16.6196C12.0557 16.5552 12.1469 16.5552 12.1683 16.6196Z" fill="#FFDA44"/>
<path d="M17.5089 11.2787L17.6748 11.7762L18.1992 11.7803C18.2672 11.7808 18.2953 11.8674 18.2407 11.9078L17.8188 12.2193L17.977 12.7193C17.9974 12.784 17.9237 12.8376 17.8685 12.7981L17.4419 12.4931L17.0153 12.7981C16.96 12.8376 16.8863 12.784 16.9068 12.7193L17.065 12.2193L16.6431 11.9078C16.5885 11.8674 16.6166 11.7808 16.6845 11.7803L17.2089 11.7762L17.3748 11.2787C17.3963 11.2144 17.4874 11.2144 17.5089 11.2787Z" fill="#FFDA44"/>
<path d="M6.82775 11.2787L6.99369 11.7762L7.51808 11.7803C7.586 11.7808 7.61413 11.8674 7.55952 11.9078L7.13764 12.2193L7.2958 12.7193C7.31628 12.784 7.2426 12.8376 7.18733 12.7981L6.76072 12.4931L6.33411 12.7981C6.27889 12.8376 6.20516 12.784 6.22564 12.7193L6.3838 12.2193L5.96192 11.9078C5.90731 11.8674 5.93544 11.7808 6.00336 11.7803L6.52775 11.7762L6.69369 11.2787C6.71516 11.2144 6.80633 11.2144 6.82775 11.2787Z" fill="#FFDA44"/>
<path d="M7.62951 8.4902L7.79545 8.98768L8.31984 8.99176C8.38776 8.99228 8.41588 9.0789 8.36128 9.11926L7.9394 9.43079L8.09756 9.93076C8.11804 9.99545 8.04435 10.0491 7.98909 10.0096L7.56248 9.70459L7.13587 10.0096C7.08065 10.049 7.00692 9.9955 7.0274 9.93076L7.18556 9.43079L6.76368 9.11926C6.70907 9.0789 6.7372 8.99228 6.80512 8.99176L7.32951 8.98768L7.49545 8.4902C7.51692 8.42579 7.60799 8.42579 7.62951 8.4902Z" fill="#FFDA44"/>
<path d="M16.8795 13.8305L17.0454 14.328L17.5698 14.3321C17.6378 14.3326 17.6659 14.4192 17.6113 14.4596L17.1894 14.7711L17.3476 15.2711C17.368 15.3358 17.2944 15.3894 17.2391 15.3499L16.8125 15.0449L16.3859 15.3499C16.3307 15.3893 16.2569 15.3358 16.2774 15.2711L16.4356 14.7711L16.0137 14.4596C15.9591 14.4192 15.9872 14.3326 16.0551 14.3321L16.5795 14.328L16.7454 13.8305C16.7669 13.7661 16.858 13.7661 16.8795 13.8305Z" fill="#FFDA44"/>
<path d="M14.9247 6.53509L15.0907 7.03257L15.6151 7.03665C15.683 7.03716 15.7111 7.12379 15.6565 7.16415L15.2346 7.47568L15.3928 7.97565C15.4133 8.04033 15.3396 8.09396 15.2843 8.05444L14.8577 7.74947L14.431 8.05444C14.3758 8.09391 14.3021 8.04038 14.3226 7.97565L14.4807 7.47568L14.0588 7.16415C14.0042 7.12379 14.0324 7.03716 14.1003 7.03665L14.6247 7.03257L14.7906 6.53509C14.8121 6.47073 14.9032 6.47073 14.9247 6.53509Z" fill="#FFDA44"/>
<path d="M9.58434 15.7856L9.75028 16.2831L10.2747 16.2872C10.3426 16.2877 10.3707 16.3743 10.3161 16.4147L9.89423 16.7262L10.0524 17.2262C10.0729 17.2909 9.99919 17.3445 9.94392 17.305L9.51731 17L9.0907 17.305C9.03548 17.3445 8.96175 17.2909 8.98223 17.2262L9.14039 16.7262L8.71852 16.4147C8.66391 16.3743 8.69203 16.2877 8.75995 16.2872L9.28434 16.2832L9.45028 15.7857C9.47175 15.7212 9.56292 15.7212 9.58434 15.7856Z" fill="#FFDA44"/>
<path d="M16.7454 8.4902L16.5795 8.98768L16.0551 8.99176C15.9872 8.99228 15.9591 9.0789 16.0137 9.11926L16.4356 9.43079L16.2774 9.93076C16.2569 9.99545 16.3306 10.0491 16.3859 10.0096L16.8125 9.70459L17.2391 10.0096C17.2943 10.049 17.368 9.9955 17.3476 9.93076L17.1894 9.43079L17.6113 9.11926C17.6659 9.0789 17.6378 8.99228 17.5698 8.99176L17.0454 8.98768L16.8795 8.4902C16.858 8.42579 16.7669 8.42579 16.7454 8.4902Z" fill="#FFDA44"/>
<path d="M7.49545 13.8305L7.32951 14.328L6.80512 14.3321C6.7372 14.3326 6.70907 14.4192 6.76368 14.4596L7.18556 14.7711L7.0274 15.2711C7.00692 15.3358 7.0806 15.3894 7.13587 15.3499L7.56248 15.0449L7.98909 15.3499C8.04431 15.3893 8.11804 15.3358 8.09756 15.2711L7.9394 14.7711L8.36128 14.4596C8.41588 14.4192 8.38776 14.3326 8.31984 14.3321L7.79545 14.328L7.62951 13.8305C7.60799 13.7661 7.51692 13.7661 7.49545 13.8305Z" fill="#FFDA44"/>
<path d="M9.45028 6.53509L9.28434 7.03257L8.75995 7.03665C8.69203 7.03716 8.66391 7.12379 8.71852 7.16415L9.14039 7.47568L8.98223 7.97565C8.96175 8.04033 9.03544 8.09396 9.0907 8.05444L9.51731 7.74947L9.94392 8.05444C9.99914 8.09391 10.0729 8.04038 10.0524 7.97565L9.89423 7.47568L10.3161 7.16415C10.3707 7.12379 10.3426 7.03716 10.2747 7.03665L9.75028 7.03257L9.58434 6.53509C9.56283 6.47073 9.47175 6.47073 9.45028 6.53509Z" fill="#FFDA44"/>
<path d="M14.7906 15.7856L14.6247 16.2831L14.1003 16.2872C14.0324 16.2877 14.0042 16.3743 14.0588 16.4147L14.4807 16.7262L14.3226 17.2262C14.3021 17.2909 14.3758 17.3445 14.431 17.305L14.8576 17L15.2843 17.305C15.3395 17.3445 15.4132 17.2909 15.3927 17.2262L15.2346 16.7262L15.6564 16.4147C15.7111 16.3743 15.6829 16.2877 15.615 16.2872L15.0906 16.2832L14.9247 15.7857C14.9032 15.7212 14.8121 15.7212 14.7906 15.7856Z" fill="#FFDA44"/>
</svg>
