<svg width="10" height="5" viewBox="0 0 10 5" fill="none" xmlns="http://www.w3.org/2000/svg">
<path d="M9.0172 4.23248L5.2672 0.482481C5.1961 0.412063 5.10008 0.372559 5.00001 0.372559C4.89994 0.372559 4.80392 0.412063 4.73283 0.482481L0.982825 4.23248C0.931953 4.2867 0.897471 4.35422 0.883369 4.42722C0.869266 4.50021 0.87612 4.57571 0.903137 4.64498C0.931826 4.71323 0.980074 4.77146 1.0418 4.81234C1.10353 4.85321 1.17598 4.8749 1.25001 4.87467H8.75001C8.82405 4.8749 8.89649 4.85321 8.95822 4.81234C9.01995 4.77146 9.0682 4.71323 9.09689 4.64498C9.1239 4.57571 9.13076 4.50021 9.11666 4.42722C9.10255 4.35422 9.06807 4.2867 9.0172 4.23248Z" fill="white"/>
</svg>
