<svg width="24" height="24" viewBox="0 0 24 24" fill="none" xmlns="http://www.w3.org/2000/svg">
<g clip-path="url(#clip0_483_23875)">
<path d="M22.209 4.1377H1.79566C0.806407 4.1377 0 4.93941 0 5.93336V18.067C0 19.0609 0.806407 19.8626 1.79566 19.8626H22.2043C23.1983 19.8626 24 19.0562 24 18.067V5.93336C24.0047 4.93941 23.1983 4.1377 22.209 4.1377Z" fill="#DA251D"/>
<path d="M12.1946 7.31146L13.301 10.6309L16.7986 10.659C16.9955 10.659 17.0752 10.9122 16.9158 11.0247L14.1028 13.1017L15.1577 16.4351C15.2186 16.6227 15.0029 16.7774 14.8435 16.6602L12.0024 14.6301L9.15649 16.6648C8.99708 16.7774 8.78611 16.6227 8.84237 16.4398L9.89726 13.1063L7.08421 11.0294C6.9248 10.9122 7.0092 10.6637 7.20142 10.6637L10.699 10.6355L11.8054 7.31615C11.8711 7.12392 12.1336 7.12392 12.1946 7.31146Z" fill="#FFE15A"/>
</g>
<defs>
<clipPath id="clip0_483_23875">
<rect width="24" height="24" fill="white"/>
</clipPath>
</defs>
</svg>
