<svg width="20" height="20" viewBox="0 0 20 20" fill="none" xmlns="http://www.w3.org/2000/svg">
<path d="M3.75 3.12524L16.25 16.8752" stroke="#9F9FAC" stroke-width="1.4" stroke-linecap="round" stroke-linejoin="round"/>
<path d="M12.1022 12.3124C11.4889 12.8698 10.6793 13.1608 9.85149 13.1214C9.02367 13.0819 8.24542 12.7152 7.68794 12.102C7.13046 11.4888 6.8394 10.6792 6.87878 9.85138C6.91816 9.02356 7.28476 8.24528 7.89795 7.68774" stroke="#9F9FAC" stroke-width="1.4" stroke-linecap="round" stroke-linejoin="round"/>
<path d="M5.78082 5.35913C2.59572 6.97206 1.25 10.0003 1.25 10.0003C1.25 10.0003 3.75 15.6246 10 15.6246C11.4644 15.6363 12.9105 15.299 14.2186 14.6407" stroke="#9F9FAC" stroke-width="1.4" stroke-linecap="round" stroke-linejoin="round"/>
<path d="M16.2976 13.211C18.0008 11.6855 18.75 10.0001 18.75 10.0001C18.75 10.0001 16.25 4.37452 9.99995 4.37452C9.45864 4.37364 8.91819 4.41765 8.38416 4.5061" stroke="#9F9FAC" stroke-width="1.4" stroke-linecap="round" stroke-linejoin="round"/>
<path d="M10.5881 6.93042C11.2523 7.05796 11.8573 7.39742 12.3122 7.89787C12.7672 8.39832 13.0476 9.03279 13.1114 9.7061" stroke="#9F9FAC" stroke-width="1.4" stroke-linecap="round" stroke-linejoin="round"/>
</svg>
