<svg width="110" height="110" viewBox="0 0 110 110" fill="none" xmlns="http://www.w3.org/2000/svg">
<path d="M39 9.23761C46.8085 4.72934 50.7128 2.47521 55 2.47521C59.2872 2.47521 63.1915 4.72934 71 9.23761L86.6314 18.2624C94.4399 22.7707 98.3442 25.0248 100.488 28.7376C102.631 32.4504 102.631 36.9587 102.631 45.9752V64.0248C102.631 73.0413 102.631 77.5496 100.488 81.2624C98.3442 84.9752 94.4399 87.2293 86.6314 91.7376L71 100.762C63.1915 105.271 59.2872 107.525 55 107.525C50.7128 107.525 46.8085 105.271 39 100.762L23.3686 91.7376C15.5601 87.2293 11.6558 84.9752 9.5122 81.2624C7.3686 77.5496 7.3686 73.0413 7.3686 64.0248V45.9752C7.3686 36.9587 7.3686 32.4504 9.5122 28.7376C11.6558 25.0248 15.5601 22.7707 23.3686 18.2624L39 9.23761Z" fill="#282730"/>
<path d="M57.1105 30.8341H55.7324V52.976H77.8743V51.5979C77.8743 46.0708 75.7093 40.8619 71.7778 36.9306C67.8465 32.9992 62.6375 30.8341 57.1105 30.8341ZM58.4887 50.2197V33.6425C67.3218 34.3141 74.3943 41.3866 75.0659 50.2197H58.4887Z" fill="white"/>
<path d="M52.9763 36.4385H51.5982C40.149 36.4385 30.8345 45.7119 30.8345 57.1104C30.8345 68.5377 40.1719 77.8741 51.5982 77.8741C62.9967 77.8741 72.2701 68.5595 72.2701 57.1104V55.7322H52.9763V36.4385ZM50.2201 53.7833L39.9202 43.4834C42.7389 41.0888 46.3067 39.5427 50.2201 39.2466V53.7833ZM33.5907 57.1104C33.5907 52.6483 35.2396 48.5627 37.962 45.423L49.6493 57.1104L37.934 68.8256C35.2282 65.6741 33.5907 61.5801 33.5907 57.1104ZM51.5982 75.1179C47.1285 75.1179 43.0345 73.4804 39.883 70.7746L52.169 58.4876H69.4619C68.7593 67.7765 61.0157 75.1179 51.5982 75.1179Z" fill="#F35818"/>
</svg>
