<svg width="24" height="24" viewBox="0 0 24 24" fill="none" xmlns="http://www.w3.org/2000/svg">
<path d="M7.5 14.9995H19.5C19.6989 14.9995 19.8897 14.9205 20.0303 14.7798C20.171 14.6392 20.25 14.4484 20.25 14.2495V4.49951C20.25 4.3006 20.171 4.10983 20.0303 3.96918C19.8897 3.82853 19.6989 3.74951 19.5 3.74951H9C8.80109 3.74951 8.61032 3.82853 8.46967 3.96918C8.32902 4.10983 8.25 4.3006 8.25 4.49951V5.24951" stroke="#9F9FAC" stroke-width="1.5" stroke-linecap="round" stroke-linejoin="round"/>
<path d="M9.75 12.75L7.5 15L9.75 17.25" stroke="#9F9FAC" stroke-width="1.5" stroke-linecap="round" stroke-linejoin="round"/>
<path d="M16.5 9H4.5C4.30109 9 4.11032 9.07902 3.96967 9.21967C3.82902 9.36032 3.75 9.55109 3.75 9.75V19.5C3.75 19.6989 3.82902 19.8897 3.96967 20.0303C4.11032 20.171 4.30109 20.25 4.5 20.25H15C15.1989 20.25 15.3897 20.171 15.5303 20.0303C15.671 19.8897 15.75 19.6989 15.75 19.5V18.75" stroke="#9F9FAC" stroke-width="1.5" stroke-linecap="round" stroke-linejoin="round"/>
<path d="M14.25 11.2495L16.5 8.99951L14.25 6.74951" stroke="#9F9FAC" stroke-width="1.5" stroke-linecap="round" stroke-linejoin="round"/>
</svg>
