<svg width="10" height="7" viewBox="0 0 10 7" fill="none" xmlns="http://www.w3.org/2000/svg">
<path d="M4.35124 6.15772L0.215046 1.4299C-0.273086 0.873637 0.123629 3.17119e-07 0.864453 3.17119e-07H9.13683C9.30263 -0.000141834 9.46495 0.0475091 9.60437 0.137247C9.74378 0.226985 9.85437 0.355006 9.92289 0.505979C9.99142 0.656952 10.015 0.824477 9.99074 0.988492C9.9665 1.15251 9.8955 1.30606 9.78624 1.43076L5.65005 6.15685C5.5691 6.24949 5.46927 6.32373 5.35726 6.3746C5.24526 6.42547 5.12366 6.45179 5.00064 6.45179C4.87763 6.45179 4.75603 6.42547 4.64402 6.3746C4.53202 6.32373 4.43219 6.24949 4.35124 6.15685V6.15772Z" fill="#9F9FAC"/>
</svg>
