<svg width="24" height="24" viewBox="0 0 24 24" fill="none" xmlns="http://www.w3.org/2000/svg">
<path fill-rule="evenodd" clip-rule="evenodd" d="M13 3C13 2.73478 12.8946 2.48043 12.7071 2.29289C12.5196 2.10536 12.2652 2 12 2C11.7348 2 11.4804 2.10536 11.2929 2.29289C11.1054 2.48043 11 2.73478 11 3V4C11 4.26522 11.1054 4.51957 11.2929 4.70711C11.4804 4.89464 11.7348 5 12 5C12.2652 5 12.5196 4.89464 12.7071 4.70711C12.8946 4.51957 13 4.26522 13 4V3ZM6.207 4.793C6.0184 4.61084 5.7658 4.51005 5.5036 4.51233C5.2414 4.5146 4.99059 4.61977 4.80518 4.80518C4.61977 4.99059 4.5146 5.2414 4.51233 5.5036C4.51005 5.7658 4.61084 6.0184 4.793 6.207L5.793 7.207C5.9816 7.38916 6.23421 7.48995 6.4964 7.48767C6.7586 7.4854 7.00941 7.38023 7.19482 7.19482C7.38023 7.00941 7.4854 6.7586 7.48767 6.4964C7.48995 6.2342 7.38916 5.9816 7.207 5.793L6.207 4.793ZM19.207 6.207C19.3892 6.0184 19.49 5.7658 19.4877 5.5036C19.4854 5.2414 19.3802 4.99059 19.1948 4.80518C19.0094 4.61977 18.7586 4.5146 18.4964 4.51233C18.2342 4.51005 17.9816 4.61084 17.793 4.793L16.793 5.793C16.6108 5.9816 16.51 6.2342 16.5123 6.4964C16.5146 6.7586 16.6198 7.00941 16.8052 7.19482C16.9906 7.38023 17.2414 7.4854 17.5036 7.48767C17.7658 7.48995 18.0184 7.38916 18.207 7.207L19.207 6.207ZM12 6C10.711 5.99992 9.4563 6.41493 8.42161 7.18359C7.38691 7.95225 6.62725 9.03369 6.25512 10.2678C5.88299 11.5019 5.91816 12.823 6.35545 14.0355C6.79273 15.248 7.60886 16.2875 8.683 17H15.317C16.3911 16.2875 17.2073 15.248 17.6446 14.0355C18.0818 12.823 18.117 11.5019 17.7449 10.2678C17.3728 9.03369 16.6131 7.95225 15.5784 7.18359C14.5437 6.41493 13.289 5.99992 12 6ZM15 18H9V19C9 19.7956 9.31607 20.5587 9.87868 21.1213C10.4413 21.6839 11.2044 22 12 22C12.7957 22 13.5587 21.6839 14.1213 21.1213C14.6839 20.5587 15 19.7956 15 19V18ZM3 11C2.73478 11 2.48043 11.1054 2.29289 11.2929C2.10536 11.4804 2 11.7348 2 12C2 12.2652 2.10536 12.5196 2.29289 12.7071C2.48043 12.8946 2.73478 13 3 13H4C4.26522 13 4.51957 12.8946 4.70711 12.7071C4.89464 12.5196 5 12.2652 5 12C5 11.7348 4.89464 11.4804 4.70711 11.2929C4.51957 11.1054 4.26522 11 4 11H3ZM20 11C19.7348 11 19.4804 11.1054 19.2929 11.2929C19.1054 11.4804 19 11.7348 19 12C19 12.2652 19.1054 12.5196 19.2929 12.7071C19.4804 12.8946 19.7348 13 20 13H21C21.2652 13 21.5196 12.8946 21.7071 12.7071C21.8946 12.5196 22 12.2652 22 12C22 11.7348 21.8946 11.4804 21.7071 11.2929C21.5196 11.1054 21.2652 11 21 11H20Z" fill="#F35818"/>
</svg>
