<svg width="111" height="110" viewBox="0 0 111 110" fill="none" xmlns="http://www.w3.org/2000/svg">
<path d="M39.3633 9.23761C47.1718 4.72934 51.0761 2.47521 55.3633 2.47521C59.6505 2.47521 63.5547 4.72934 71.3633 9.23761L86.9947 18.2624C94.8032 22.7707 98.7075 25.0248 100.851 28.7376C102.995 32.4504 102.995 36.9587 102.995 45.9752V64.0248C102.995 73.0413 102.995 77.5496 100.851 81.2624C98.7075 84.9752 94.8032 87.2293 86.9947 91.7376L71.3633 100.762C63.5547 105.271 59.6505 107.525 55.3633 107.525C51.0761 107.525 47.1718 105.271 39.3633 100.762L23.7319 91.7376C15.9233 87.2293 12.0191 84.9752 9.87548 81.2624C7.73188 77.5496 7.73188 73.0413 7.73188 64.0248V45.9752C7.73188 36.9587 7.73188 32.4504 9.87548 28.7376C12.0191 25.0248 15.9233 22.7707 23.7319 18.2624L39.3633 9.23761Z" fill="#282730"/>
<path d="M72.5165 34.505C71.5028 33.4892 70.1548 32.9297 68.7205 32.9297H66.2979V32.4414C66.2979 31.0952 65.2026 30 63.8564 30H46.2783C44.9321 30 43.8369 31.0952 43.8369 32.4414V32.9297H41.4056C38.4504 32.9297 36.0435 35.3365 36.0401 38.2948L36 74.6229C35.9984 76.0587 36.5558 77.4089 37.5693 78.4247C38.583 79.4405 39.9312 80 41.3654 80H68.6803C71.6355 80 74.0425 77.5932 74.0457 74.6349L74.0859 38.3067C74.0876 36.8709 73.5302 35.5207 72.5165 34.505V34.505ZM46.7666 32.9297H63.3682V35.8594H46.7666V32.9297ZM71.1191 74.6315C71.1176 75.9764 70.0235 77.0703 68.6803 77.0703H41.3654C40.7135 77.0703 40.1007 76.816 39.6399 76.3543C39.1792 75.8925 38.9259 75.2788 38.9266 74.6263L38.9667 38.2981C38.9682 36.9533 40.0622 35.8594 41.4056 35.8594H43.8369V36.3477C43.8369 37.6938 44.9321 38.7891 46.2783 38.7891H63.8564C65.2026 38.7891 66.2979 37.6938 66.2979 36.3477V35.8594H68.7205C69.3725 35.8594 69.9853 36.1137 70.446 36.5754C70.9067 37.0371 71.1602 37.6509 71.1594 38.3034L71.1191 74.6315Z" fill="#F35818"/>
<path d="M55.54 49.5312H65.9474C66.7563 49.5312 67.4122 48.8754 67.4122 48.0664C67.4122 47.2574 66.7563 46.6016 65.9474 46.6016H55.54C54.7311 46.6016 54.0752 47.2574 54.0752 48.0664C54.0752 48.8754 54.7311 49.5312 55.54 49.5312V49.5312Z" fill="#F35818"/>
<path d="M55.54 59.2969H65.9474C66.7563 59.2969 67.4122 58.641 67.4122 57.832C67.4122 57.023 66.7563 56.3672 65.9474 56.3672H55.54C54.7311 56.3672 54.0752 57.023 54.0752 57.832C54.0752 58.641 54.7311 59.2969 55.54 59.2969V59.2969Z" fill="#F35818"/>
<path d="M65.9893 66.1328H55.54C54.7311 66.1328 54.0752 66.7887 54.0752 67.5977C54.0752 68.4066 54.7311 69.0625 55.54 69.0625H65.9893C66.7982 69.0625 67.4541 68.4066 67.4541 67.5977C67.4541 66.7887 66.7983 66.1328 65.9893 66.1328Z" fill="#F35818"/>
<path d="M49.3071 44.0777L45.929 47.4558L45.1325 46.6593C44.5604 46.0872 43.633 46.0872 43.0609 46.6593C42.4888 47.2312 42.4888 48.1588 43.0609 48.7308L44.8932 50.5633C45.1679 50.838 45.5405 50.9924 45.9291 50.9924C46.3175 50.9924 46.6901 50.8381 46.9648 50.5633L51.3788 46.1494C51.9508 45.5774 51.9508 44.6499 51.3788 44.0778C50.8067 43.5057 49.8792 43.5057 49.3071 44.0777V44.0777Z" fill="white"/>
<path d="M49.3071 54.5892L45.929 57.9674L45.1325 57.1709C44.5604 56.5988 43.633 56.5988 43.0609 57.1709C42.4888 57.7429 42.4888 58.6703 43.0609 59.2425L44.8932 61.0749C45.1679 61.3496 45.5405 61.504 45.9291 61.504C46.3175 61.504 46.6902 61.3497 46.9648 61.0749L51.3788 56.6609C51.9508 56.089 51.9508 55.1614 51.3788 54.5893C50.8067 54.0173 49.8791 54.0173 49.3071 54.5892V54.5892Z" fill="white"/>
<path d="M49.3071 64.3549L45.929 67.733L45.1325 66.9365C44.5604 66.3644 43.633 66.3644 43.0609 66.9365C42.4888 67.5085 42.4888 68.4359 43.0609 69.0081L44.8932 70.8405C45.1679 71.1152 45.5405 71.2696 45.9291 71.2696C46.3175 71.2696 46.6902 71.1153 46.9648 70.8405L51.3788 66.4266C51.9508 65.8546 51.9508 64.927 51.3788 64.355C50.8067 63.7829 49.8792 63.7829 49.3071 64.3549Z" fill="white"/>
</svg>
