<svg width="21" height="18" viewBox="0 0 21 18" fill="none" xmlns="http://www.w3.org/2000/svg">
<path d="M20.5003 13.0104L13.2326 1.43964C12.9387 0.998287 12.5338 0.63507 12.0552 0.383474C11.5767 0.131878 11.0398 0 10.4942 0C9.94852 0 9.41166 0.131878 8.93308 0.383474C8.4545 0.63507 8.04961 0.998287 7.75573 1.43964L0.487997 13.0104C0.231261 13.4212 0.0917193 13.8897 0.0834026 14.3688C0.075086 14.8478 0.198287 15.3205 0.440619 15.7394C0.720791 16.2108 1.12632 16.6024 1.61578 16.8741C2.10523 17.1458 2.66104 17.2878 3.22643 17.2858H17.7619C18.3236 17.2915 18.8769 17.1549 19.366 16.8898C19.8551 16.6247 20.2627 16.2404 20.5477 15.7757C20.7972 15.3525 20.9243 14.8731 20.916 14.3869C20.9076 13.9007 20.7641 13.4255 20.5003 13.0104ZM10.4942 13.6472C10.3068 13.6472 10.1236 13.5938 9.96773 13.4939C9.8119 13.3939 9.69045 13.2518 9.61874 13.0856C9.54702 12.9194 9.52825 12.7365 9.56481 12.56C9.60138 12.3836 9.69162 12.2215 9.82414 12.0943C9.95666 11.9671 10.1255 11.8804 10.3093 11.8453C10.4931 11.8102 10.6836 11.8282 10.8568 11.8971C11.0299 11.9659 11.1779 12.0825 11.282 12.2321C11.3861 12.3817 11.4417 12.5576 11.4417 12.7375C11.4417 12.9788 11.3419 13.2101 11.1642 13.3807C10.9865 13.5513 10.7455 13.6472 10.4942 13.6472ZM11.4417 10.0085C11.4417 10.2498 11.3419 10.4812 11.1642 10.6518C10.9865 10.8224 10.7455 10.9182 10.4942 10.9182C10.2429 10.9182 10.0018 10.8224 9.82414 10.6518C9.64644 10.4812 9.54661 10.2498 9.54661 10.0085V6.36995C9.54661 6.12869 9.64644 5.89732 9.82414 5.72672C10.0018 5.55613 10.2429 5.46029 10.4942 5.46029C10.7455 5.46029 10.9865 5.55613 11.1642 5.72672C11.3419 5.89732 11.4417 6.12869 11.4417 6.36995V10.0085Z" fill="#D80027"/>
</svg>
