<svg width="24" height="24" viewBox="0 0 24 24" fill="none" xmlns="http://www.w3.org/2000/svg">
<path d="M7.49997 14.9995H19.5C19.6989 14.9995 19.8896 14.9205 20.0303 14.7798C20.171 14.6392 20.25 14.4484 20.25 14.2495V4.49951C20.25 4.3006 20.171 4.10983 20.0303 3.96918C19.8896 3.82853 19.6989 3.74951 19.5 3.74951H8.99997C8.80106 3.74951 8.61029 3.82853 8.46964 3.96918C8.32899 4.10983 8.24997 4.3006 8.24997 4.49951V5.24951" stroke="#F35818" stroke-width="1.5" stroke-linecap="round" stroke-linejoin="round"/>
<path d="M9.74997 12.75L7.49997 15L9.74997 17.25" stroke="#F35818" stroke-width="1.5" stroke-linecap="round" stroke-linejoin="round"/>
<path d="M16.5 9H4.49997C4.30106 9 4.11029 9.07902 3.96964 9.21967C3.82899 9.36032 3.74997 9.55109 3.74997 9.75V19.5C3.74997 19.6989 3.82899 19.8897 3.96964 20.0303C4.11029 20.171 4.30106 20.25 4.49997 20.25H15C15.1989 20.25 15.3896 20.171 15.5303 20.0303C15.671 19.8897 15.75 19.6989 15.75 19.5V18.75" stroke="#F35818" stroke-width="1.5" stroke-linecap="round" stroke-linejoin="round"/>
<path d="M14.25 11.2495L16.5 8.99951L14.25 6.74951" stroke="#F35818" stroke-width="1.5" stroke-linecap="round" stroke-linejoin="round"/>
</svg>
