<svg width="111" height="110" viewBox="0 0 111 110" fill="none" xmlns="http://www.w3.org/2000/svg">
<path d="M39.6362 9.23761C47.4448 4.72934 51.349 2.47521 55.6362 2.47521C59.9234 2.47521 63.8277 4.72934 71.6362 9.23761L87.2676 18.2624C95.0762 22.7707 98.9804 25.0248 101.124 28.7376C103.268 32.4504 103.268 36.9587 103.268 45.9752V64.0248C103.268 73.0413 103.268 77.5496 101.124 81.2624C98.9804 84.9752 95.0762 87.2293 87.2676 91.7376L71.6362 100.762C63.8277 105.271 59.9234 107.525 55.6362 107.525C51.349 107.525 47.4448 105.271 39.6362 100.762L24.0048 91.7376C16.1963 87.2293 12.292 84.9752 10.1484 81.2624C8.00483 77.5496 8.00483 73.0413 8.00483 64.0248V45.9752C8.00483 36.9587 8.00483 32.4504 10.1484 28.7376C12.292 25.0248 16.1963 22.7707 24.0048 18.2624L39.6362 9.23761Z" fill="#282730"/>
<path d="M42.7144 31.9541C40.5731 31.9541 38.4798 32.5891 36.6994 33.7787C34.919 34.9684 33.5313 36.6593 32.7118 38.6376C31.8924 40.6159 31.678 42.7928 32.0957 44.8929C32.5135 46.9931 33.5446 48.9222 35.0588 50.4364C36.5729 51.9505 38.502 52.9817 40.6022 53.3994C42.7024 53.8171 44.8792 53.6027 46.8575 52.7833C48.8359 51.9639 50.5268 50.5762 51.7164 48.7957C52.9061 47.0153 53.541 44.9221 53.541 42.7808C53.5377 39.9104 52.396 37.1585 50.3663 35.1288C48.3366 33.0991 45.5848 31.9574 42.7144 31.9541ZM48.1 38.9592L42.1267 47.1725C42.0315 47.3034 41.9091 47.4122 41.7679 47.4912C41.6267 47.5703 41.47 47.6178 41.3087 47.6304C41.1473 47.6431 40.9851 47.6207 40.8333 47.5647C40.6815 47.5087 40.5436 47.4204 40.4292 47.306L37.4425 44.3193C37.2325 44.1093 37.1145 43.8244 37.1145 43.5274C37.1145 43.2304 37.2325 42.9456 37.4425 42.7356C37.6525 42.5255 37.9374 42.4075 38.2344 42.4075C38.5314 42.4075 38.8162 42.5255 39.0262 42.7356L41.0861 44.7955L46.2887 37.6423C46.4634 37.4021 46.7263 37.2412 47.0196 37.1948C47.3129 37.1485 47.6126 37.2205 47.8528 37.3951C48.093 37.5698 48.254 37.8327 48.3003 38.126C48.3467 38.4193 48.2746 38.719 48.1 38.9592Z" fill="#F35818"/>
<path d="M77.8074 34.1941H56.9008C56.6037 34.1942 56.3189 34.3122 56.1089 34.5222C55.8989 34.7322 55.7808 35.0171 55.7808 35.3141V41.2874C55.7808 41.5844 55.8989 41.8693 56.1089 42.0793C56.3189 42.2893 56.6037 42.4073 56.9008 42.4074H77.8074C78.1045 42.4073 78.3893 42.2893 78.5993 42.0793C78.8093 41.8693 78.9274 41.5844 78.9274 41.2874V35.3141C78.9274 35.0171 78.8093 34.7322 78.5993 34.5222C78.3893 34.3122 78.1044 34.1942 77.8074 34.1941ZM76.6874 40.1674H58.0208V36.4341H76.6874V40.1674Z" fill="#F35818"/>
<path d="M56.9008 46.8875H68.8474C69.1445 46.8875 69.4293 46.7695 69.6394 46.5594C69.8494 46.3494 69.9674 46.0645 69.9674 45.7675C69.9674 45.4704 69.8494 45.1855 69.6394 44.9755C69.4293 44.7655 69.1445 44.6475 68.8474 44.6475H56.9008C56.6037 44.6475 56.3188 44.7655 56.1088 44.9755C55.8988 45.1855 55.7808 45.4704 55.7808 45.7675C55.7808 46.0645 55.8988 46.3494 56.1088 46.5594C56.3188 46.7695 56.6037 46.8875 56.9008 46.8875Z" fill="white"/>
<path d="M56.9008 51.3673H68.8474C69.1445 51.3673 69.4293 51.2493 69.6394 51.0393C69.8494 50.8292 69.9674 50.5444 69.9674 50.2473C69.9674 49.9503 69.8494 49.6654 69.6394 49.4554C69.4293 49.2453 69.1445 49.1273 68.8474 49.1273H56.9008C56.6037 49.1273 56.3188 49.2453 56.1088 49.4554C55.8988 49.6654 55.7808 49.9503 55.7808 50.2473C55.7808 50.5444 55.8988 50.8292 56.1088 51.0393C56.3188 51.2493 56.6037 51.3673 56.9008 51.3673Z" fill="white"/>
<path d="M42.7144 55.8475C40.5731 55.8475 38.4798 56.4825 36.6994 57.6722C34.919 58.8618 33.5313 60.5527 32.7118 62.531C31.8924 64.5093 31.678 66.6862 32.0957 68.7864C32.5135 70.8865 33.5446 72.8157 35.0588 74.3298C36.5729 75.8439 38.502 76.8751 40.6022 77.2928C42.7024 77.7106 44.8792 77.4962 46.8575 76.6767C48.8359 75.8573 50.5268 74.4696 51.7164 72.6892C52.9061 70.9087 53.541 68.8155 53.541 66.6742C53.5377 63.8038 52.396 61.0519 50.3663 59.0222C48.3366 56.9926 45.5848 55.8508 42.7144 55.8475ZM42.7144 75.2608C41.0161 75.2608 39.3559 74.7572 37.9439 73.8137C36.5318 72.8702 35.4312 71.5292 34.7813 69.9602C34.1314 68.3912 33.9614 66.6647 34.2927 64.999C34.624 63.3334 35.4418 61.8034 36.6427 60.6025C37.8435 59.4016 39.3735 58.5838 41.0392 58.2525C42.7048 57.9212 44.4313 58.0912 46.0003 58.7412C47.5693 59.3911 48.9104 60.4916 49.8539 61.9037C50.7974 63.3158 51.301 64.9759 51.301 66.6742C51.2984 68.9507 50.3929 71.1332 48.7831 72.7429C47.1734 74.3527 44.9909 75.2582 42.7144 75.2608Z" fill="#F35818"/>
<path d="M77.8074 58.0874H56.9008C56.6037 58.0875 56.3189 58.2055 56.1089 58.4155C55.8989 58.6256 55.7808 58.9104 55.7808 59.2074V65.1807C55.7808 65.4778 55.8989 65.7626 56.1089 65.9726C56.3189 66.1826 56.6037 66.3007 56.9008 66.3007H77.8074C78.1045 66.3007 78.3893 66.1826 78.5993 65.9726C78.8093 65.7626 78.9274 65.4778 78.9274 65.1807V59.2074C78.9274 58.9104 78.8093 58.6256 78.5993 58.4155C78.3893 58.2055 78.1044 58.0875 77.8074 58.0874ZM76.6874 64.0607H58.0208V60.3274H76.6874V64.0607Z" fill="#F35818"/>
<path d="M68.8474 68.5408H56.9008C56.6037 68.5408 56.3188 68.6588 56.1088 68.8688C55.8988 69.0789 55.7808 69.3637 55.7808 69.6608C55.7808 69.9578 55.8988 70.2427 56.1088 70.4527C56.3188 70.6628 56.6037 70.7808 56.9008 70.7808H68.8474C69.1445 70.7808 69.4293 70.6628 69.6394 70.4527C69.8494 70.2427 69.9674 69.9578 69.9674 69.6608C69.9674 69.3637 69.8494 69.0789 69.6394 68.8688C69.4293 68.6588 69.1445 68.5408 68.8474 68.5408Z" fill="white"/>
<path d="M68.8474 73.0209H56.9008C56.6037 73.0209 56.3188 73.1389 56.1088 73.3489C55.8988 73.559 55.7808 73.8438 55.7808 74.1409C55.7808 74.4379 55.8988 74.7228 56.1088 74.9328C56.3188 75.1429 56.6037 75.2609 56.9008 75.2609H68.8474C69.1445 75.2609 69.4293 75.1429 69.6394 74.9328C69.8494 74.7228 69.9674 74.4379 69.9674 74.1409C69.9674 73.8438 69.8494 73.559 69.6394 73.3489C69.4293 73.1389 69.1445 73.0209 68.8474 73.0209Z" fill="white"/>
<path d="M47.2393 62.1489C47.1353 62.0449 47.0118 61.9624 46.876 61.9061C46.7401 61.8498 46.5945 61.8208 46.4474 61.8208C46.3003 61.8208 46.1547 61.8498 46.0188 61.9061C45.8829 61.9624 45.7595 62.0449 45.6555 62.1489L42.7141 65.0904L39.7726 62.1489C39.5626 61.9389 39.2777 61.8209 38.9807 61.8209C38.6837 61.8209 38.3989 61.9389 38.1888 62.1489C37.9788 62.3589 37.8608 62.6438 37.8608 62.9408C37.8608 63.2378 37.9788 63.5227 38.1888 63.7327L41.1303 66.6741L38.1888 69.6156C37.9788 69.8256 37.8608 70.1105 37.8608 70.4075C37.8608 70.7045 37.9788 70.9893 38.1888 71.1993C38.3989 71.4094 38.6837 71.5274 38.9807 71.5274C39.2777 71.5274 39.5626 71.4094 39.7726 71.1993L42.7141 68.2579L45.6555 71.1993C45.8655 71.4094 46.1504 71.5274 46.4474 71.5274C46.7444 71.5274 47.0292 71.4094 47.2393 71.1993C47.4493 70.9893 47.5673 70.7045 47.5673 70.4075C47.5673 70.1105 47.4493 69.8256 47.2393 69.6156L44.2978 66.6741L47.2393 63.7327C47.3433 63.6287 47.4258 63.5053 47.4821 63.3694C47.5384 63.2335 47.5674 63.0879 47.5674 62.9408C47.5674 62.7937 47.5384 62.6481 47.4821 62.5122C47.4258 62.3763 47.3433 62.2529 47.2393 62.1489Z" fill="#F35818"/>
</svg>
