<svg width="21" height="20" viewBox="0 0 21 20" fill="none" xmlns="http://www.w3.org/2000/svg">
<path d="M10.5 1.875C8.89303 1.875 7.32214 2.35152 5.986 3.24431C4.64985 4.1371 3.60844 5.40605 2.99348 6.8907C2.37852 8.37535 2.21762 10.009 2.53112 11.5851C2.84463 13.1612 3.61846 14.6089 4.75476 15.7452C5.89106 16.8815 7.3388 17.6554 8.9149 17.9689C10.491 18.2824 12.1247 18.1215 13.6093 17.5065C15.094 16.8916 16.3629 15.8502 17.2557 14.514C18.1485 13.1779 18.625 11.607 18.625 10C18.6226 7.84586 17.7658 5.78065 16.2426 4.25744C14.7194 2.73424 12.6541 1.87743 10.5 1.875ZM9.875 6.25C9.875 6.08424 9.94085 5.92527 10.0581 5.80806C10.1753 5.69085 10.3342 5.625 10.5 5.625C10.6658 5.625 10.8247 5.69085 10.9419 5.80806C11.0592 5.92527 11.125 6.08424 11.125 6.25V10.625C11.125 10.7908 11.0592 10.9497 10.9419 11.0669C10.8247 11.1842 10.6658 11.25 10.5 11.25C10.3342 11.25 10.1753 11.1842 10.0581 11.0669C9.94085 10.9497 9.875 10.7908 9.875 10.625V6.25ZM10.5 14.375C10.3146 14.375 10.1333 14.32 9.97916 14.217C9.82499 14.114 9.70482 13.9676 9.63387 13.7963C9.56291 13.625 9.54434 13.4365 9.58052 13.2546C9.61669 13.0727 9.70598 12.9057 9.83709 12.7746C9.9682 12.6435 10.1352 12.5542 10.3171 12.518C10.499 12.4818 10.6875 12.5004 10.8588 12.5714C11.0301 12.6423 11.1765 12.7625 11.2795 12.9167C11.3825 13.0708 11.4375 13.2521 11.4375 13.4375C11.4375 13.6861 11.3387 13.9246 11.1629 14.1004C10.9871 14.2762 10.7486 14.375 10.5 14.375Z" fill="#F35818"/>
</svg>
