<svg width="18" height="5" viewBox="0 0 18 5" fill="none" xmlns="http://www.w3.org/2000/svg">
<path d="M11.3333 2.33333C11.3333 2.79482 11.1965 3.24595 10.9401 3.62966C10.6837 4.01338 10.3193 4.31245 9.89293 4.48905C9.46657 4.66566 8.99741 4.71186 8.54479 4.62183C8.09217 4.5318 7.67641 4.30957 7.35009 3.98325C7.02376 3.65693 6.80153 3.24117 6.7115 2.78854C6.62147 2.33592 6.66768 1.86677 6.84428 1.44041C7.02089 1.01404 7.31996 0.649627 7.70367 0.393237C8.08738 0.136847 8.53851 0 9 0C9.61865 0.000610896 10.2118 0.24664 10.6492 0.684092C11.0867 1.12154 11.3327 1.71468 11.3333 2.33333ZM2.33333 0C1.87184 0 1.42072 0.136847 1.037 0.393237C0.653289 0.649627 0.35422 1.01404 0.177615 1.44041C0.00101098 1.86677 -0.0451968 2.33592 0.0448354 2.78854C0.134868 3.24117 0.357096 3.65693 0.683419 3.98325C1.00974 4.30957 1.4255 4.5318 1.87812 4.62183C2.33075 4.71186 2.7999 4.66566 3.22626 4.48905C3.65262 4.31245 4.01704 4.01338 4.27343 3.62966C4.52982 3.24595 4.66667 2.79482 4.66667 2.33333C4.66606 1.71468 4.42003 1.12154 3.98258 0.684092C3.54512 0.24664 2.95199 0.000610896 2.33333 0ZM15.6667 0C15.2052 0 14.7541 0.136847 14.3703 0.393237C13.9866 0.649627 13.6876 1.01404 13.5109 1.44041C13.3343 1.86677 13.2881 2.33592 13.3782 2.78854C13.4682 3.24117 13.6904 3.65693 14.0168 3.98325C14.3431 4.30957 14.7588 4.5318 15.2115 4.62183C15.6641 4.71186 16.1332 4.66566 16.5596 4.48905C16.986 4.31245 17.3504 4.01338 17.6068 3.62966C17.8632 3.24595 18 2.79482 18 2.33333C17.9994 1.71468 17.7534 1.12154 17.3159 0.684092C16.8785 0.24664 16.2853 0.000610896 15.6667 0Z" fill="white"/>
</svg>
