<svg width="22" height="22" viewBox="0 0 22 22" fill="none" xmlns="http://www.w3.org/2000/svg">
<path d="M20.2099 14.8901C19.5737 16.3946 18.5787 17.7203 17.3118 18.7514C16.0449 19.7825 14.5447 20.4875 12.9424 20.8049C11.34 21.1222 9.68434 21.0422 8.12006 20.5719C6.55578 20.1015 5.13054 19.2551 3.96893 18.1067C2.80733 16.9583 1.94473 15.5428 1.45655 13.984C0.968371 12.4252 0.869476 10.7706 1.16851 9.16471C1.46755 7.55886 2.15541 6.05071 3.17196 4.77211C4.18851 3.49351 5.5028 2.4834 6.99992 1.83008" stroke="#F35818" stroke-width="1.4" stroke-linecap="round" stroke-linejoin="round"/>
<path d="M21 11C21 9.68678 20.7413 8.38642 20.2388 7.17317C19.7362 5.95991 18.9997 4.85752 18.0711 3.92893C17.1425 3.00035 16.0401 2.26375 14.8268 1.7612C13.6136 1.25866 12.3132 1 11 1V11H21Z" stroke="#F35818" stroke-width="1.4" stroke-linecap="round" stroke-linejoin="round"/>
</svg>
