<svg width="21" height="22" viewBox="0 0 21 22" fill="none" xmlns="http://www.w3.org/2000/svg">
<path d="M10.2067 11C15.2693 11 19.3734 8.76142 19.3734 6C19.3734 3.23858 15.2693 1 10.2067 1C5.1441 1 1.04004 3.23858 1.04004 6C1.04004 8.76142 5.1441 11 10.2067 11Z" stroke="#F35818" stroke-width="1.4" stroke-linecap="round" stroke-linejoin="round"/>
<path d="M1.04004 6V11C1.04004 13.7614 5.1441 16 10.2067 16C15.2693 16 19.3734 13.7614 19.3734 11V6" stroke="#F35818" stroke-width="1.4" stroke-linecap="round" stroke-linejoin="round"/>
<path d="M1.04004 11V16C1.04004 18.7614 5.1441 21 10.2067 21C15.2693 21 19.3734 18.7614 19.3734 16V11" stroke="#F35818" stroke-width="1.4" stroke-linecap="round" stroke-linejoin="round"/>
</svg>
