<svg width="24" height="22" viewBox="0 0 24 22" fill="none" xmlns="http://www.w3.org/2000/svg">
<path d="M17.6664 10.1665C17.6664 11.4926 17.1396 12.7643 16.202 13.702C15.2643 14.6396 13.9926 15.1664 12.6665 15.1664" stroke="#F35818" stroke-width="1.4" stroke-linecap="round" stroke-linejoin="round"/>
<path d="M5.99987 18.4534C7.88347 20.1428 10.3392 21.0524 12.8688 20.9977C18.2311 20.8917 22.5907 16.5051 22.6653 11.1422C22.6842 9.81719 22.4395 8.50161 21.9455 7.27196C21.4515 6.0423 20.718 4.92311 19.7876 3.97941C18.8573 3.03572 17.7486 2.28636 16.5261 1.77488C15.3036 1.2634 13.9917 1 12.6665 1H11.8332V4.33328L1 10.9998L2.43613 12.9911C2.71 13.3702 3.08466 13.6651 3.5176 13.8421C3.95055 14.0191 4.42444 14.0713 4.88552 13.9926C6.70503 13.6846 9.89178 13.5016 12.6665 15.1664L12.6665 15.1664L8.99631 20.3047" stroke="#F35818" stroke-width="1.4" stroke-linecap="round" stroke-linejoin="round"/>
<path d="M12.2499 9.33321C12.9402 9.33321 13.4998 8.77358 13.4998 8.08323C13.4998 7.39289 12.9402 6.83325 12.2499 6.83325C11.5595 6.83325 10.9999 7.39289 10.9999 8.08323C10.9999 8.77358 11.5595 9.33321 12.2499 9.33321Z" fill="#F35818"/>
</svg>
