<svg width="22" height="22" viewBox="0 0 22 22" fill="none" xmlns="http://www.w3.org/2000/svg">
<path d="M11 21C16.5228 21 21 16.5228 21 11C21 5.47715 16.5228 1 11 1C5.47715 1 1 5.47715 1 11C1 16.5228 5.47715 21 11 21Z" stroke="#9F9FAC" stroke-width="1.4" stroke-linecap="round" stroke-linejoin="round"/>
<path d="M11 15.1667C13.3012 15.1667 15.1667 13.3012 15.1667 11C15.1667 8.69885 13.3012 6.83337 11 6.83337C8.69885 6.83337 6.83337 8.69885 6.83337 11C6.83337 13.3012 8.69885 15.1667 11 15.1667Z" stroke="#9F9FAC" stroke-width="1.4" stroke-linecap="round" stroke-linejoin="round"/>
<path d="M8.05374 8.05362L3.92896 3.92883" stroke="#9F9FAC" stroke-width="1.4" stroke-linecap="round" stroke-linejoin="round"/>
<path d="M13.9463 8.05362L18.0711 3.92883" stroke="#9F9FAC" stroke-width="1.4" stroke-linecap="round" stroke-linejoin="round"/>
<path d="M13.9463 13.9465L18.0711 18.0713" stroke="#9F9FAC" stroke-width="1.4" stroke-linecap="round" stroke-linejoin="round"/>
<path d="M8.05374 13.9465L3.92896 18.0713" stroke="#9F9FAC" stroke-width="1.4" stroke-linecap="round" stroke-linejoin="round"/>
</svg>
