<svg width="19" height="22" viewBox="0 0 19 22" fill="none" xmlns="http://www.w3.org/2000/svg">
<path d="M11.033 21H7.92615" stroke="#F35818" stroke-width="1.4" stroke-linecap="round" stroke-linejoin="round"/>
<path d="M8.99125 1.17053C7.14728 2.64767 0.979759 8.55025 6.37268 17.893H12.5864C17.8672 8.55686 11.7899 2.65602 9.96529 1.17368C9.82776 1.06187 9.65606 1.00058 9.47882 1C9.30158 0.999432 9.1295 1.05962 8.99125 1.17053V1.17053Z" stroke="#F35818" stroke-width="1.4" stroke-linecap="round" stroke-linejoin="round"/>
<path d="M4.22381 10.0637L1.18003 13.7163C1.104 13.8075 1.0499 13.9149 1.0219 14.0304C0.993898 14.1458 0.992733 14.2661 1.0185 14.382L2.21881 19.7834C2.24742 19.9122 2.30835 20.0315 2.39586 20.1302C2.48336 20.2289 2.59456 20.3037 2.71896 20.3475C2.84337 20.3913 2.97689 20.4028 3.10693 20.3807C3.23697 20.3586 3.35925 20.3038 3.46224 20.2214L6.37274 17.893" stroke="#F35818" stroke-width="1.4" stroke-linecap="round" stroke-linejoin="round"/>
<path d="M14.677 9.99365L17.7793 13.7163C17.8553 13.8076 17.9094 13.915 17.9374 14.0304C17.9654 14.1458 17.9666 14.2661 17.9408 14.3821L16.7405 19.7835C16.7119 19.9122 16.6509 20.0316 16.5634 20.1303C16.4759 20.229 16.3647 20.3038 16.2403 20.3476C16.1159 20.3914 15.9824 20.4028 15.8524 20.3808C15.7223 20.3587 15.6 20.3039 15.497 20.2215L12.5865 17.8931" stroke="#F35818" stroke-width="1.4" stroke-linecap="round" stroke-linejoin="round"/>
<path d="M9.47965 9.73763C10.1231 9.73763 10.6447 9.216 10.6447 8.57255C10.6447 7.92909 10.1231 7.40747 9.47965 7.40747C8.8362 7.40747 8.31458 7.92909 8.31458 8.57255C8.31458 9.216 8.8362 9.73763 9.47965 9.73763Z" fill="#F35818"/>
</svg>
