<svg width="20" height="18" viewBox="0 0 20 18" fill="none" xmlns="http://www.w3.org/2000/svg">
<path d="M1 2.56522V15.087C1 15.5021 1.16491 15.9002 1.45844 16.1937C1.75198 16.4873 2.1501 16.6522 2.56522 16.6522H18.2174C18.425 16.6522 18.624 16.5697 18.7708 16.423C18.9175 16.2762 19 16.0771 19 15.8696V4.91304C19 4.70548 18.9175 4.50642 18.7708 4.35966C18.624 4.21289 18.425 4.13043 18.2174 4.13043H2.56522C2.1501 4.13043 1.75198 3.96553 1.45844 3.67199C1.16491 3.37846 1 2.98034 1 2.56522ZM1 2.56522C1 2.1501 1.16491 1.75198 1.45844 1.45844C1.75198 1.16491 2.1501 1 2.56522 1H15.8696" stroke="#F35818" stroke-width="1.4" stroke-linecap="round" stroke-linejoin="round"/>
<path d="M14.6956 11.5651C15.344 11.5651 15.8696 11.0395 15.8696 10.3912C15.8696 9.74286 15.344 9.21729 14.6956 9.21729C14.0473 9.21729 13.5217 9.74286 13.5217 10.3912C13.5217 11.0395 14.0473 11.5651 14.6956 11.5651Z" fill="#F35818"/>
</svg>
