<svg width="22" height="22" viewBox="0 0 22 22" fill="none" xmlns="http://www.w3.org/2000/svg">
<path d="M11 22C17.0751 22 22 17.0751 22 11C22 4.92487 17.0751 0 11 0C4.92487 0 0 4.92487 0 11C0 17.0751 4.92487 22 11 22Z" fill="#F0F0F0"/>
<path d="M10.5218 10.9999H22C22 10.0071 21.8677 9.04527 21.621 8.13037H10.5218V10.9999Z" fill="#D80027"/>
<path d="M10.5218 5.26045H20.3855C19.7121 4.16166 18.8512 3.19043 17.8473 2.39087H10.5218V5.26045Z" fill="#D80027"/>
<path d="M10.9998 21.9997C13.5887 21.9997 15.9681 21.1049 17.8471 19.6084H4.1525C6.03152 21.1049 8.41102 21.9997 10.9998 21.9997Z" fill="#D80027"/>
<path d="M1.61453 16.738H20.3855C20.9261 15.8559 21.3453 14.8917 21.6211 13.8684H0.378967C0.654696 14.8917 1.07394 15.8559 1.61453 16.738Z" fill="#D80027"/>
<path d="M5.09541 1.7178H6.09783L5.1654 2.39521L5.52157 3.4913L4.58919 2.81389L3.65681 3.4913L3.96447 2.54439C3.14351 3.22824 2.42395 4.02944 1.83099 4.92216H2.15217L1.55865 5.35335C1.46618 5.50761 1.37749 5.66431 1.2925 5.82334L1.57592 6.69564L1.04715 6.31149C0.915707 6.58992 0.795483 6.87469 0.687414 7.1654L0.999668 8.12649H2.15217L1.21975 8.80391L1.57592 9.9L0.643543 9.22258L0.0850349 9.62842C0.0291328 10.0778 0 10.5355 0 11H11C11 4.92491 11 4.2087 11 0C8.82701 0 6.8013 0.630349 5.09541 1.7178ZM5.52157 9.9L4.58919 9.22258L3.65681 9.9L4.01298 8.80391L3.08056 8.12649H4.23307L4.58919 7.03041L4.94532 8.12649H6.09783L5.1654 8.80391L5.52157 9.9ZM5.1654 5.59956L5.52157 6.69564L4.58919 6.01825L3.65681 6.69564L4.01298 5.59956L3.08056 4.92216H4.23307L4.58919 3.82607L4.94532 4.92216H6.09783L5.1654 5.59956ZM9.46721 9.9L8.53484 9.22258L7.60247 9.9L7.95862 8.80391L7.02619 8.12649H8.17874L8.53484 7.03041L8.89099 8.12649H10.0435L9.11106 8.80391L9.46721 9.9ZM9.11106 5.59956L9.46721 6.69564L8.53484 6.01825L7.60247 6.69564L7.95862 5.59956L7.02619 4.92216H8.17874L8.53484 3.82607L8.89099 4.92216H10.0435L9.11106 5.59956ZM9.11106 2.39521L9.46721 3.4913L8.53484 2.81389L7.60247 3.4913L7.95862 2.39521L7.02619 1.7178H8.17874L8.53484 0.621714L8.89099 1.7178H10.0435L9.11106 2.39521Z" fill="#0052B4"/>
</svg>
