<svg width="24" height="18" viewBox="0 0 24 18" fill="none" xmlns="http://www.w3.org/2000/svg">
<path d="M19.7532 1.61895C18.3345 0.957598 16.7985 0.477585 15.1984 0.200244C15.1844 0.199796 15.1705 0.202428 15.1576 0.207957C15.1447 0.213486 15.1331 0.221777 15.1238 0.232245C14.9318 0.584255 14.7078 1.04293 14.5584 1.39494C12.8613 1.13894 11.1354 1.13894 9.43828 1.39494C9.28894 1.03227 9.06494 0.584255 8.86227 0.232245C8.8516 0.210912 8.8196 0.200244 8.7876 0.200244C7.18755 0.477585 5.66218 0.957598 4.23281 1.61895C4.22214 1.61895 4.21147 1.62962 4.2008 1.64028C1.29939 5.98174 0.49937 10.2058 0.894047 14.3873C0.894047 14.4086 0.904714 14.43 0.926048 14.4406C2.8461 15.8487 4.69149 16.702 6.51554 17.2674C6.54754 17.278 6.57954 17.2674 6.5902 17.246C7.01688 16.6594 7.40089 16.0407 7.73157 15.39C7.7529 15.3473 7.73157 15.3047 7.6889 15.294C7.08088 15.0593 6.50487 14.782 5.93952 14.462C5.89685 14.4406 5.89685 14.3766 5.92885 14.3446C6.04619 14.2593 6.16353 14.1633 6.28086 14.078C6.3022 14.0566 6.3342 14.0566 6.35553 14.0673C10.025 15.742 13.9824 15.742 17.6092 14.0673C17.6305 14.0566 17.6625 14.0566 17.6838 14.078C17.8012 14.174 17.9185 14.2593 18.0358 14.3553C18.0785 14.3873 18.0785 14.4513 18.0252 14.4726C17.4705 14.8033 16.8838 15.07 16.2758 15.3047C16.2331 15.3153 16.2225 15.3687 16.2331 15.4007C16.5745 16.0513 16.9585 16.67 17.3745 17.2567C17.4065 17.2674 17.4385 17.278 17.4705 17.2674C19.3052 16.702 21.1506 15.8487 23.0707 14.4406C23.092 14.43 23.1027 14.4086 23.1027 14.3873C23.572 9.55517 22.324 5.36305 19.7959 1.64028C19.7852 1.62962 19.7746 1.61895 19.7532 1.61895V1.61895ZM8.28625 11.8379C7.18755 11.8379 6.2702 10.8245 6.2702 9.5765C6.2702 8.32847 7.16622 7.31511 8.28625 7.31511C9.41695 7.31511 10.313 8.33913 10.3023 9.5765C10.3023 10.8245 9.40628 11.8379 8.28625 11.8379ZM15.7211 11.8379C14.6224 11.8379 13.7051 10.8245 13.7051 9.5765C13.7051 8.32847 14.6011 7.31511 15.7211 7.31511C16.8518 7.31511 17.7478 8.33913 17.7372 9.5765C17.7372 10.8245 16.8518 11.8379 15.7211 11.8379Z" fill="#9F9FAC"/>
</svg>
