<svg width="24" height="24" viewBox="0 0 24 24" fill="none" xmlns="http://www.w3.org/2000/svg">
<path d="M12 0.799805C5.81434 0.799805 0.800003 5.81414 0.800003 11.9998C0.800003 18.1855 5.81434 23.1998 12 23.1998C18.1857 23.1998 23.2 18.1855 23.2 11.9998C23.2 5.81414 18.1857 0.799805 12 0.799805ZM16.5558 9.97447C16.5605 10.0701 16.5617 10.1658 16.5617 10.2591C16.5617 13.1758 14.3438 16.537 10.2862 16.537C9.08718 16.539 7.91313 16.1946 6.90517 15.5453C7.07667 15.5663 7.25284 15.5745 7.43134 15.5745C8.465 15.5745 9.41584 15.2233 10.1707 14.6306C9.71067 14.6216 9.26495 14.4693 8.89563 14.1949C8.52631 13.9205 8.25179 13.5378 8.11034 13.1C8.44069 13.1628 8.781 13.1496 9.1055 13.0615C8.60623 12.9605 8.15723 12.69 7.83466 12.2957C7.51209 11.9015 7.33579 11.4079 7.33567 10.8985V10.8716C7.63317 11.0361 7.97384 11.1365 8.3355 11.1481C7.86744 10.8366 7.53609 10.3579 7.40922 9.81013C7.28236 9.26233 7.36956 8.68677 7.653 8.20114C8.20712 8.88247 8.89814 9.43984 9.68133 9.83717C10.4645 10.2345 11.3224 10.4629 12.1995 10.5076C12.088 10.0343 12.136 9.53744 12.336 9.09423C12.536 8.65101 12.8769 8.28629 13.3056 8.05678C13.7343 7.82727 14.2268 7.74581 14.7065 7.82509C15.1863 7.90436 15.6264 8.13992 15.9585 8.49514C16.4522 8.39746 16.9256 8.21637 17.3585 7.95964C17.194 8.47079 16.8495 8.90484 16.389 9.18114C16.8263 9.12847 17.2534 9.01089 17.656 8.8323C17.3602 9.27551 16.9877 9.66231 16.5558 9.97447V9.97447Z" fill="#9F9FAC"/>
</svg>
