<svg width="24" height="24" viewBox="0 0 24 24" fill="none" xmlns="http://www.w3.org/2000/svg">
<path d="M12 0.799805C5.81763 0.799805 0.800026 5.81741 0.800026 11.9998C0.800026 18.1822 5.81763 23.1998 12 23.1998C18.1824 23.1998 23.2 18.1822 23.2 11.9998C23.2 5.81741 18.1824 0.799805 12 0.799805ZM17.1968 8.41581C17.0288 10.1854 16.3008 14.4862 15.9312 16.4686C15.7744 17.3086 15.4608 17.5886 15.1696 17.6222C14.52 17.6782 14.0272 17.1966 13.4 16.7822C12.4144 16.1326 11.8544 15.7294 10.9024 15.1022C9.79363 14.3742 10.5104 13.971 11.1488 13.3214C11.3168 13.1534 14.184 10.5438 14.24 10.3086C14.2478 10.273 14.2468 10.236 14.237 10.2009C14.2273 10.1657 14.2091 10.1335 14.184 10.107C14.1168 10.051 14.0272 10.0734 13.9488 10.0846C13.848 10.107 12.28 11.1486 9.22243 13.2094C8.77443 13.5118 8.37123 13.6686 8.01283 13.6574C7.60963 13.6462 6.84803 13.4334 6.27683 13.243C5.57123 13.019 5.02243 12.8958 5.06723 12.5038C5.08963 12.3022 5.36963 12.1006 5.89603 11.8878C9.16643 10.4654 11.3392 9.52461 12.4256 9.07661C15.5392 7.77741 16.1776 7.55341 16.6032 7.55341C16.6928 7.55341 16.9056 7.57581 17.04 7.68781C17.152 7.77741 17.1856 7.90061 17.1968 7.99021C17.1856 8.05741 17.208 8.25901 17.1968 8.41581V8.41581Z" fill="#9F9FAC"/>
</svg>
